<?xml version="1.0" encoding="utf-8"?>
<!-- Generator: Adobe Illustrator 24.3.0, SVG Export Plug-In . SVG Version: 6.00 Build 0)  -->
<svg version="1.1" id="Layer_1" xmlns="http://www.w3.org/2000/svg" xmlns:xlink="http://www.w3.org/1999/xlink" x="0px" y="0px"
	 viewBox="0 0 2000 2000" style="enable-background:new 0 0 2000 2000;" xml:space="preserve">
<style type="text/css">
	.st0{fill:#B6A268;}
	.st1{fill:#B6A268;}
	.st2{fill:#B6A268;}
	.st3{fill:#B6A268;}
	.st4{fill:#B6A268;}
	.st5{fill:#B6A268;}
	.st6{fill:#B6A268;}
	.st7{fill:#B6A268;}
	.st8{fill:#B6A268;}
	.st9{fill:#B6A268;}
	.st10{fill:#B6A268;}
	.st11{fill:#B6A268;}
	.st12{fill:#B6A268;}
	.st13{fill:#B6A268;}
	.st14{fill:#B6A268;}
	.st15{fill:#B6A268;}
	.st16{fill:#B6A268;}
	.st17{fill:#B6A268;}
	.st18{fill:#B6A268;}
	.st19{fill:#B6A268;}
	.st20{fill:#B6A268;}
	.st21{fill:#B6A268;}
	.st22{fill:#B6A268;}
	.st23{fill:#B6A268;}
	.st24{fill:#B6A268;}
	.st25{fill:#B6A268;}
	.st26{fill:#B6A268;}
	.st27{fill:#B6A268;}
	.st28{fill:#B6A268;}
	.st29{fill:#B6A268;}
	.st30{fill:#B6A268;}
	.st31{fill:#B6A268;}
	.st32{fill:#B6A268;}
	.st33{fill:#B6A268;}
	.st34{fill:#B6A268;}
	.st35{fill:#B6A268;}
	.st36{fill:#B6A268;}
	.st37{fill:#B6A268;}
	.st38{fill:#B6A268;}
	.st39{fill:#B6A268;}
	.st40{fill:#B6A268;}
	.st41{fill:#B6A268;}
	.st42{fill:#B6A268;}
	.st43{fill:#B6A268;}
	.st44{fill:#B6A268;}
	.st45{fill:#B6A268;}
	.st46{fill:#B6A268;}
</style>
<rect x="-26.66" y="-26.66" width="2053.32" height="2053.32"/>
<g>
	<linearGradient id="SVGID_1_" gradientUnits="userSpaceOnUse" x1="796.7363" y1="429.3206" x2="796.7363" y2="1585.7146">
		<stop  offset="0" style="stop-color:#B6A268"/>
		<stop  offset="0.4659" style="stop-color:#B6A268"/>
		<stop  offset="0.8227" style="stop-color:#B6A268"/>
	</linearGradient>
	<path class="st0" d="M781.17,696.39c-0.08,0.81-0.45,1.5-1.13,2.12l1.56,2.12l5.31-3.08l-1.02-2.42c-0.14,0.04-0.27,0.06-0.37,0.06
		c-0.12,0-0.2,0-0.34-0.24c-0.39-0.66-0.66-1.45-0.82-2.36l-2.81-15.78l18.78-10.9l12.27,10.22c0.69,0.62,1.24,1.28,1.65,1.94
		c0.09,0.13,0.18,0.28-0.26,0.76l1.63,2.05l6.47-3.76l-1.07-2.41c-0.4,0.13-0.79,0.2-1.15,0.2c-0.43,0-0.83-0.09-1.24-0.28
		c-0.93-0.41-1.77-0.93-2.5-1.54l-42.46-35.38l-2.29,1.34l9.68,54.4C781.22,694.39,781.26,695.38,781.17,696.39z M776.02,645.67
		l21.66,18.07l-16.7,9.7L776.02,645.67z"/>
	<linearGradient id="SVGID_2_" gradientUnits="userSpaceOnUse" x1="893.4316" y1="429.3205" x2="893.4316" y2="1585.7125">
		<stop  offset="0" style="stop-color:#B6A268"/>
		<stop  offset="0.4659" style="stop-color:#B6A268"/>
		<stop  offset="0.8227" style="stop-color:#B6A268"/>
	</linearGradient>
	<path class="st1" d="M860.41,601.74c0.59,0,1.13,0.13,1.64,0.39l11.22,47.66c0.19,0.82,0.24,1.66,0.14,2.48
		c-0.05,0.36-0.2,0.83-1,1.23l0.9,2.47l5.89-1.39l-0.3-2.61c-0.87,0-1.19-0.32-1.39-0.63c-0.44-0.7-0.77-1.48-0.96-2.32l-9.88-41.97
		l31.52,41.91l0.26,1.1l2.83-0.67l9.18-49.49l9.18,38.98c0.19,0.82,0.24,1.66,0.14,2.48c-0.05,0.36-0.2,0.83-1,1.23l0.9,2.47
		l7.29-1.71l-0.3-2.61c-0.9,0-1.24-0.35-1.44-0.65c-0.46-0.69-0.79-1.45-0.98-2.28l-10.62-45.11c-0.18-0.74-0.23-1.52-0.16-2.33
		c0.04-0.52,0.27-0.88,0.78-1.19c0.43-0.26,1.22-0.76,0.94-1.73l-0.28-0.96l-1.16,0l-4.32,1.02l-10.25,55.21l-30.17-40.04
		c-0.56-0.76-0.97-1.53-1.21-2.29c-0.07-0.21-0.09-0.27,0.31-0.48l-0.92-2.46l-7.21,1.7l0.35,2.61L860.41,601.74z"/>
	<linearGradient id="SVGID_3_" gradientUnits="userSpaceOnUse" x1="991.3693" y1="429.3204" x2="991.3693" y2="1585.7145">
		<stop  offset="0" style="stop-color:#B6A268"/>
		<stop  offset="0.4659" style="stop-color:#B6A268"/>
		<stop  offset="0.8227" style="stop-color:#B6A268"/>
	</linearGradient>
	<path class="st2" d="M994.43,640.31l0.37-2.61c-0.87-0.23-1.11-0.65-1.23-0.99c-0.27-0.78-0.4-1.6-0.38-2.45l1.08-46.33
		c0.02-0.85,0.19-1.67,0.49-2.43c0.13-0.34,0.4-0.75,1.28-0.94l-0.25-2.62l-7.48-0.18l-0.37,2.6c0.87,0.23,1.12,0.65,1.23,0.99
		c0.27,0.79,0.4,1.61,0.38,2.46l-1.08,46.33c-0.02,0.85-0.18,1.66-0.49,2.43c-0.13,0.34-0.4,0.75-1.28,0.94l0.24,2.62L994.43,640.31
		z"/>
	<linearGradient id="SVGID_4_" gradientUnits="userSpaceOnUse" x1="1088.8639" y1="429.3206" x2="1088.8639" y2="1585.7129">
		<stop  offset="0" style="stop-color:#B6A268"/>
		<stop  offset="0.4659" style="stop-color:#B6A268"/>
		<stop  offset="0.8227" style="stop-color:#B6A268"/>
	</linearGradient>
	<path class="st3" d="M1068.94,594.01c0.22-0.03,0.46-0.04,0.7-0.04c0.61,0,1.29,0.1,2.01,0.29l14.89,3.94l-12.57,47.53
		c-0.22,0.82-0.57,1.58-1.04,2.25c-0.2,0.29-0.54,0.61-1.45,0.61c0,0,0,0-0.01,0l-0.37,2.6l7.24,1.91l0.96-2.45
		c-0.79-0.42-0.93-0.89-0.97-1.25c-0.08-0.82-0.01-1.65,0.2-2.47l12.57-47.53l14.96,3.96c1.01,0.27,1.84,0.65,2.48,1.13
		c0.56,0.42,0.99,1.11,1.3,2.05l2.57-0.2l0.72-4.42l-46.87-12.4l-1.65,4.15l2.09,1.5C1067.47,594.49,1068.23,594.1,1068.94,594.01z"
		/>
	<linearGradient id="SVGID_5_" gradientUnits="userSpaceOnUse" x1="1187.1516" y1="429.3203" x2="1187.1516" y2="1585.7129">
		<stop  offset="0" style="stop-color:#B6A268"/>
		<stop  offset="0.4659" style="stop-color:#B6A268"/>
		<stop  offset="0.8227" style="stop-color:#B6A268"/>
	</linearGradient>
	<path class="st4" d="M1169.43,689.26c-0.63-0.6-0.64-1.05-0.57-1.41c0.16-0.82,0.47-1.6,0.9-2.34l8.12-13.88l28.17-17.87
		c0.87-0.54,1.85-1,2.93-1.35c0.43-0.14,0.87-0.21,1.31-0.21c0.48,0,0.97,0.08,1.47,0.25l1.09-2.4l-9.63-5.63l2.37,4.24
		c0.34,0.6,0.2,0.78,0.14,0.86c-0.4,0.51-1.02,1.03-1.86,1.55l-25.51,16.14l1.42-30.23c0.04-0.98,0.21-1.85,0.51-2.57
		c0.05-0.12,0.09-0.18,0.14-0.18c0.05,0,0.13,0.01,0.27,0.04l1.01-2.42l-6.46-3.78l-1.56,2.13c0.75,0.68,1.21,1.47,1.4,2.41
		c0.22,1.1,0.31,2.19,0.26,3.21l-1.62,33.4l-8.11,13.88c-0.43,0.74-0.97,1.39-1.6,1.93c-0.25,0.22-0.51,0.31-0.83,0.31
		c-0.2,0-0.43-0.04-0.68-0.11l-1.05,2.41l6.39,3.74L1169.43,689.26z"/>
	<linearGradient id="SVGID_6_" gradientUnits="userSpaceOnUse" x1="992.5031" y1="429.3218" x2="992.5031" y2="1585.7126">
		<stop  offset="0" style="stop-color:#B6A268"/>
		<stop  offset="0.4659" style="stop-color:#B6A268"/>
		<stop  offset="0.8227" style="stop-color:#B6A268"/>
	</linearGradient>
	<path class="st5" d="M1190.35,1036.1c0.85,0.45,1.61,0.81,2.34,1.15l10.96,5.22c1.44,0.71,3.34,1.59,5.15,2.04
		c1.96,0.55,4.03,0.82,6.15,0.82c1.8,0,3.59-0.2,5.3-0.59c3.82-0.81,7.39-2.58,10.34-5.13c1.48-1.27,2.79-2.72,3.91-4.31
		c0.51-0.73,1-1.52,1.48-2.41l11.08-19.15c3.76-6.83,3.7-15.66-0.15-22.49c-0.96-1.74-2.12-3.33-3.45-4.71
		c-0.81-0.85-1.56-1.59-2.3-2.33c-0.41-0.4-0.81-0.8-1.22-1.22c-2.03-2.05-4.42-4.47-6.81-6.99c-7.99-8.33-16.36-17.47-26.33-28.76
		c-8.6-9.8-17.01-19.7-24.99-29.44c-3.56-4.35-7.36-9.07-11.93-14.85c-0.68-0.89-1.38-1.78-2.08-2.67c-1.23-1.57-2.51-3.2-3.6-4.74
		l-1.21-1.75c-0.23-0.37-0.44-0.76-0.64-1.15c-0.13-0.24-0.26-0.49-0.43-0.78c-0.47-0.78-0.82-1.66-1.19-2.58
		c-0.17-0.42-0.34-0.85-0.49-1.17c-1.1-3.19-1.72-6.48-1.83-9.78c-0.08-3.32,0.42-6.73,1.49-10.1c1.15-3.56,2.81-6.67,5.01-9.35
		c0.27-0.4,0.64-0.78,1.02-1.18c0.26-0.26,0.51-0.52,0.69-0.73c0.13-0.13,0.26-0.28,0.39-0.42c0.15-0.17,0.3-0.35,0.52-0.52
		l1.6-1.38c0.21-0.18,0.42-0.36,0.6-0.5l1.27-0.87c0.56-0.37,1.23-0.75,1.89-1.13c0.38-0.22,0.76-0.44,1.11-0.64l3.14-1.83
		l6.09-3.47l-4.48-0.96c-0.28-0.07-0.55-0.13-1.09-0.18l-2.86-0.36c-0.95-0.12-1.92-0.23-3.01-0.31c-0.35-0.01-0.68-0.05-1.01-0.08
		c-0.58-0.05-1.17-0.11-1.85-0.11l-1.54,0.01c-2.34,0.02-3.94,0.04-4.74,0.16c-1.3,0.08-2.63,0.24-3.94,0.45
		c-5.49,0.82-10.73,2.39-15.54,4.67c-4.82,2.19-9.38,5.42-13.59,9.64c-0.31,0.33-0.63,0.66-0.94,0.98c-0.64,0.65-1.3,1.32-1.94,2.1
		l-2.42,3.21c-0.85,1.04-1.5,2.16-2.12,3.25l-0.15,0.26l-1.38-0.99c-1.38-0.98-2.88-1.98-4.75-3.17c-3.06-1.96-6.37-3.89-9.84-5.74
		c-4.83-2.57-9.82-4.87-14.87-6.88c-0.72-0.44-1.45-0.88-2.16-1.3c-4.14-2.37-9.86-5.57-17.48-9.24
		c-6.44-3.19-14.38-6.32-21.79-8.57c-8.07-2.51-17.37-4.46-25.51-5.35c-4.86-0.53-9.79-0.8-14.66-0.8c-8.07,0-16.08,0.73-23.81,2.17
		c-12.69,2.31-25.19,6.58-37.14,12.69c-5.74,2.91-11.4,6.28-16.8,10l-0.67,0.47c-5.07,3.53-9.86,6.86-14.83,10.09
		c-11.42,7.47-21.58,13.32-31.04,17.9c-8.1,3.89-14.74,6.48-20.88,8.15c-3.98,1.07-7.44,1.67-10.58,1.82c-0.5,0.03-1,0.04-1.5,0.04
		c-3.09,0-5.78-0.5-8-1.47c-5.7-2.55-8.3-9.49-7.92-15.05c0.15-3,1.05-6.07,2.59-8.88c1.57-2.93,4.01-5.5,5.97-7.43
		c1.96-2,4.31-3.9,6.8-5.52c2.36-1.52,4.7-2.65,6.43-3.45c3.03-1.29,4.56-1.93,4.26-3.38c-0.26-1.28-1.71-1.28-2.33-1.28
		c-0.43,0-0.98,0.02-1.72,0.08c-2.46,0.29-8.19,1.86-14.12,5.99c-3.28,2.3-6.23,5.02-8.75,8.08c-2.86,3.47-4.92,7.77-5.79,12.08
		c-1.11,5.24-0.53,10.72,1.63,15.48c0.92,1.85,2.42,4.56,4.8,6.73c2.11,1.9,4.62,3.37,7.29,4.27c2.79,0.88,5.84,1.33,9.07,1.33
		c2.07,0,4.27-0.18,6.56-0.54c4.47-0.7,9.03-1.91,14.36-3.83c8.12-2.95,16.42-6.87,26.14-12.34c7.33-4.13,15.12-8.96,23.81-14.78
		c2.88-1.95,6.31-4.29,9.86-6.81c2.71-1.91,6.32-4.4,10.26-6.76c7.69-4.58,15.41-8.28,22.97-11c12.72-4.72,27.34-7.32,41.18-7.32
		c2.13,0,4.25,0.06,6.31,0.18c11.81,0.57,24.64,3.07,38.12,7.46c0.95,0.32,1.92,0.66,2.88,1c-4.41-0.47-8.79-0.72-13.12-0.72
		l-1.01,0.01c-13.56,0.06-27.33,2.57-40.95,7.46c-7.44,0.08-16.18,1.81-26.74,5.31c-6.09,2.04-13.15,5.42-19.35,9.29
		c-6.27,3.86-12.95,8.94-18.83,14.31l-0.65,0.61c-1.82,1.71-3.7,3.48-5.52,5.33l-5.89,6.15c-3.67,3.87-7.75,7.79-12.1,11.64
		c-8.23,7.25-17.36,14.21-27.15,20.7c-17.32,11.43-34.95,20.37-51.46,26.12c-0.7,0.08-1.4,0.14-2.09,0.14c-0.14,0-0.75,0-0.75,0
		c-4.64,0-9.32-1.46-13.18-4.13c-3.82-2.53-6.91-6.63-8.47-11.23c-1.29-3.88-1.02-8.53,0.73-12.17c1.66-3.67,4.98-6.77,8.67-8.09
		c1.73-0.64,3.51-0.97,5.27-0.97c1.31,0,2.61,0.18,3.88,0.54c3.29,0.89,5.74,2.93,7.21,4.48c0.59,0.63,1.05,1.19,1.44,1.67
		c0.62,0.75,1.07,1.3,1.6,1.65c0.37,0.26,0.84,0.4,1.31,0.4c1.22,0,2.17-0.86,2.26-2.06c0.15-2.23-0.71-5.82-5.64-10.35
		c-1.91-1.74-4.77-3.16-7.61-3.8c-1.28-0.32-2.67-0.48-4.12-0.48c-1.79,0-3.61,0.25-5.27,0.71c-4.21,1.15-8.1,3.53-11.25,6.88
		c-1.45,1.57-2.74,3.42-3.86,5.53c-1,2.06-1.74,4.19-2.18,6.36c-0.83,4.42-0.44,9.07,1.1,13.08c1.39,3.88,3.62,7.5,6.47,10.49
		c1.98,2.06,4.08,3.72,6.21,4.91c0.67,0.39,1.36,0.75,2.06,1.09c-4.01,0.87-7.79,1.47-11.39,1.81c-2.12,0.2-4.19,0.3-6.12,0.3
		c-0.01,0-0.01,0-0.01,0c-4.85,0-9.2-0.63-12.93-1.89c-5.68-1.88-10.22-5.96-12.47-11.22c-1.1-2.45-1.83-5.23-2.25-8.5
		c-0.37-2.66-0.46-5.58-0.3-8.99c0.05-4.59,0.69-9.48,1.15-13.05c0.1-0.73,0.19-1.41,0.26-2.02c0.42-3.21,0.26-4.05-0.23-4.61
		l-0.51-0.51h-0.6c-1.03,0-1.63,0.88-2.49,2.7c-0.95,1.98-2.43,6.9-3.44,13.02c-1.35,8.31-1.06,15.73,0.87,22.07
		c1.53,4.83,4.01,8.95,7.15,11.88c3.14,3.08,7.4,5.48,12.34,6.94c4.19,1.19,8.63,1.77,13.56,1.77c4.04,0,8.42-0.4,13.39-1.22
		c14.86-2.63,30.29-8.16,48.59-17.42c5.86-2.98,11.92-6.4,17.94-10.08c-0.26,0.83-0.56,1.67-0.9,2.51c0.45-1.5,0.67-2.36,0.67-2.36
		c-5.38,14.8-24.43,28.42-24.43,28.42s-3,1.81-3.17,1.92c-0.28,0.17-0.56,0.35-0.85,0.5c-0.72,0.37-1.42,0.75-2.13,1.13
		c-1.22,0.66-2.49,1.35-3.74,1.92c-0.59,0.27-1.18,0.54-1.76,0.82c-1.44,0.67-2.8,1.31-4.25,1.85l-3,1.19l-3.1,1.05
		c-7.93,2.66-16.18,4.19-24.55,4.53c-1.39,0.07-2.81,0.1-4.22,0.1c-19.35,0-39.63-6.51-54.28-17.44c-3.59-2.44-6.98-5.49-8.95-7.52
		c-1.65-1.74-2.35-2.25-3.15-2.25c-0.5,0-0.94,0.23-1.23,0.63c-0.51,0.72-0.33,1.64,0.19,3.12c0.68,1.81,3.08,5.35,6.75,8.84
		c3.59,3.53,8.53,7.14,13.9,10.17c11.58,6.63,25.21,10.69,39.41,11.74c2.18,0.16,4.41,0.23,6.62,0.23c11.57,0,23.47-2.13,34.4-6.17
		c5.05-1.9,9.88-4.09,14.37-6.5l-0.22,0.8c-1.5,1.83-3.03,3.54-4.59,5.08c-3.87,3.84-8.17,7.18-12.77,9.93
		c-7.73,4.56-16.52,7.91-25.45,9.69c-7.35,1.57-15.48,2.33-24.98,2.33c-1.65,0-3.1-0.02-4.38-0.03c-1-0.01-1.9-0.02-2.68-0.02
		c-1.8,0-2.84,0.05-3.56,0.18c-1.5,0.24-2.1,1.14-2.17,1.91c-0.04,0.48,0.08,1.68,2.05,2.32c2.76,0.91,5.89,1.52,9.52,1.86
		c3.53,0.41,7.84,0.6,13.98,0.6l0.46,0c3.27-0.09,9.83-0.5,16.97-2.2c6.01-1.39,12.54-3.78,17.91-6.55
		c5.55-2.79,10.83-6.37,15.63-10.52l-0.01,0.03c1.17-0.95,2.3-1.95,3.4-2.99l-0.01,0.03c16.79-13.24,30.05-43.83,34.37-54.68
		c5.26-3.39,10.42-6.95,15.34-10.59c6.49-4.81,12.7-9.86,18.47-15.02c2.5-2.26,5.43-4.96,8.24-7.77l7.32-7.38
		c5.1-4.9,9.38-8.64,13.47-11.75c4.81-3.75,9.62-7.01,14.34-9.7c4.03-2.37,8.28-4.48,12.7-6.34c-3.77,2.46-7.49,5.13-11.14,8.05
		c-6.58,5.14-13.01,11.27-20.85,19.88c-5.6,6.15-11.12,12.94-17.89,22.01c-5.67,7.57-11.1,15.31-16.34,22.8
		c-5.3,7.57-10.31,14.71-15.58,21.74c-1.92,2.64-3.95,5.23-5.91,7.74c-0.71,0.91-1.42,1.81-2.09,2.68
		c-0.77,0.91-1.53,1.83-2.29,2.75c-1.96,2.38-3.99,4.84-6.11,7.13c-2.21,2.57-4.6,5.01-6.92,7.37l-1.76,1.81
		c-0.95,0.92-1.92,1.81-2.89,2.7c-0.57,0.52-1.13,1.03-1.67,1.54l-0.82,0.76c-0.48,0.45-0.96,0.89-1.43,1.3l-2.41,1.97
		c-5.57,4.77-12.01,9.16-19.65,13.39l-5.24,2.67c-1.04,0.55-2.13,0.98-3.28,1.44c-0.65,0.26-1.3,0.52-1.92,0.79l-2.68,1.1
		c-0.83,0.37-1.67,0.68-2.54,0.92l-5.33,1.7c-8.82,2.47-17.25,4-25.05,4.53l-4.67,0.37l-1.98,0.16l-1.9,0.03
		c-2.43,0.04-4.44,0.09-5.97,0.16c-3.26,0.14-4.93,0.49-4.95,2c-0.03,1.43,1.27,1.93,6.02,2.31c3.38,0.33,6.84,0.5,10.27,0.5
		c8.42,0,17.26-1.01,26.19-3c1.3-0.21,2.56-0.59,3.77-0.96c0.63-0.19,1.25-0.38,1.94-0.57c0.65-0.19,1.3-0.38,1.96-0.57
		c1.26-0.36,2.57-0.73,3.91-1.22c0.92-0.36,1.85-0.72,2.8-1.08c3.05-1.16,6.2-2.36,9.3-4c9.13-4.4,17.74-9.98,25.62-16.59
		c7.04-5.9,14.27-13.09,20.91-20.78c6.31-7.28,13.1-16.05,21.35-27.61c2.9-4.05,5.78-8.16,8.67-12.27
		c4.02-5.73,8.18-11.66,12.28-17.29c7.72-10.61,14.59-19.2,21.03-26.29c1.03-1.2,2.16-2.37,3.25-3.5l0.73-0.75
		c0.5-0.51,0.99-1.02,1.48-1.54c0.85-0.89,1.74-1.82,2.63-2.66c0.73-0.68,1.46-1.37,2.19-2.06c2.1-1.99,4.28-4.04,6.6-5.89
		c5.43-4.71,11.76-9.14,19.29-13.53l5.33-2.84c0.81-0.46,1.66-0.87,2.58-1.24l2.78-1.21c3.78-1.76,7.73-3.14,11.09-4.27
		c7.64-2.47,15.51-4.13,23.37-4.93c3.78-0.38,7.65-0.58,11.51-0.58c12.04,0,24.17,1.86,36.07,5.53c3.96,1.21,7.93,2.63,11.87,4.25
		l-2.38-0.21l-2.62-0.04c-0.78-0.03-1.57-0.04-2.36-0.04c-5.23,0-10.46,0.64-14.47,1.21c-5.39,0.89-10.97,2.25-16.61,4.05
		c-9.88,3.27-19.88,7.94-29.69,13.9c-11.6,6.98-22.53,15.89-30.83,25.12c-5.95,7.39-5.3,8.73-5,9.38c0.29,0.59,0.87,0.94,1.56,0.94
		c0.46,0,0.98-0.15,1.63-0.49c1.12-0.56,3.05-2.26,6.36-5.22c1.86-1.65,3.96-3.52,6.04-5.25c13.5-11.51,26.96-20.55,38.93-26.14
		c4.61-2.19,11.79-5.22,19.81-7.22c6.45-1.63,13.23-2.53,19.08-2.53c0.43,0,0.84,0.01,1.26,0.02c12.45,0.24,23.76,2.8,31.01,4.9
		c1.28,0.41,2.36,0.73,3.3,0.97c0.34,0.23,0.68,0.47,1.01,0.7c0.84,0.58,1.59,1.12,2.44,1.74l0.76,0.58
		c0.44,0.33,0.88,0.66,1.35,1.05l3.48,2.84l4.34-7.46c0.51-0.88,0.98-1.72,1.63-2.48l2.19-2.92c0.45-0.56,0.96-1.08,1.5-1.63
		c0.32-0.32,0.64-0.65,0.92-0.95c3.5-3.54,7.35-6.29,11.45-8.17c4.2-2,8.75-3.38,13.54-4.11c0.8-0.13,1.5-0.22,2.14-0.29
		c-0.15,0.16-0.3,0.32-0.44,0.48c-0.21,0.22-0.41,0.44-0.65,0.69c-2.67,2.95-4.76,6.15-6.16,9.43c-0.68,1.34-1.12,2.73-1.55,4.08
		c-0.13,0.41-0.26,0.81-0.39,1.21l-0.03,0.07l-0.23,1.03c-0.34,1.47-0.69,2.98-0.8,4.44c-0.24,1.45-0.26,2.89-0.28,4.28
		c-0.01,0.43-0.02,0.86-0.03,1.29l0.01,0.16c0.04,0.47,0.07,0.94,0.1,1.41c0.1,1.34,0.19,2.74,0.49,4.03
		c0.53,3.39,1.71,6.93,3.52,10.58l1.31,2.43c0.32,0.52,0.67,1.02,1.02,1.53l0.49,0.71c0.7,1.08,1.42,1.98,2.11,2.86
		c0.33,0.43,0.67,0.85,1.01,1.31c4.27,5.54,8.65,11,12.37,15.62c2.5,3.09,5.01,6.14,7.53,9.17c-13.83-5.05-17.51-7.74-18.43-8.97
		c-0.89-1.17-1.47-2.37-1.98-3.43c-1.04-2.15-2.22-4.59-5.61-3.05c-1.6,0.73-3.57,2.59-6.07,4.95c-3.55,3.36-7.97,7.54-12.26,9.01
		l-4.9,1.68l5.17,0.27c4.24,0.22,4.24,0.22,6.34,0.87c0.58,0.18,1.32,0.41,2.32,0.7c4.35,1.26,9.16,0.22,14.69-3.17
		c2.45-1.5,14.44,1.49,23.33,4.28c13.46,16.14,27.01,31.52,40.4,45.82c4.02,4.28,7.67,8.07,11.16,11.58
		c0.33,0.33,0.67,0.68,1.02,1.03c0.61,0.6,1.22,1.2,1.73,1.77c0.77,0.78,1.42,1.74,1.94,2.53c1.15,1.95,1.88,4,2.16,6.07
		c0.3,2.28,0.15,4.44-0.43,6.47c-0.27,1.05-0.74,2.09-1.13,2.92c-0.36,0.65-0.76,1.34-1.16,2.03c-8.19-0.36-14.02-3.55-17.05-5.7
		l-0.04-0.03l-0.06-0.05c-0.24-0.16-0.46-0.32-0.67-0.49c0,0-0.01-0.01-0.02-0.01c-0.21-0.17-0.4-0.34-0.6-0.5
		c-0.14-0.12-0.27-0.23-0.4-0.34c-0.22-0.25-0.45-0.42-0.63-0.55c-0.05-0.03-0.09-0.06-0.14-0.1c-0.23-0.24-0.49-0.39-0.68-0.5
		c-0.06-0.04-0.14-0.08-0.28-0.19c-0.55-0.37-0.97-0.79-1.24-1.22c-0.72-1.17-1.32-2.75-1.79-4.75c-0.4-1.52-0.6-3.14-0.8-4.85
		l-0.25-2l-2.68-0.27l-0.34,1c-0.67,1.98-1.14,4.1-1.44,6.5c-0.27,2.75-0.07,5.07,0.62,7.3c0.37,1.15,0.85,2.51,1.7,3.88
		c0.46,0.71,1.06,1.3,1.64,1.83c0,0,0.15,0.14,0.47,0.35c0,0.01,0.01,0.01,0.01,0.02c1.71,1.16,8.15,4.6,23.17,3.24l-7.37,12.72
		c-0.29,0.49-0.57,0.99-0.85,1.48c-0.37,0.65-0.73,1.28-1.07,1.81c-0.58,0.91-1.26,1.76-2.01,2.53c-1.48,1.52-3.33,2.76-5.33,3.58
		c-1.04,0.43-2.08,0.73-3.11,0.92c-1.17,0.23-2.17,0.33-3.31,0.33c-2.11,0-4.27-0.45-6.2-1.28l-14.29-6.78
		c-3.8-1.87-6.82-5.42-8.07-9.48l-0.04-0.14c-0.13-0.47-0.26-0.94-0.37-1.48c-0.03-0.17-0.08-0.38-0.12-0.61
		c-0.1-0.49-0.22-1.06-0.35-1.49c-0.37-1.48-0.93-2.97-1.65-4.42c-1.35-2.76-3.33-5.32-5.71-7.38c-1.11-0.97-2.37-1.85-3.86-2.69
		l-0.26-0.15c-0.26-0.14-0.53-0.29-0.78-0.4l-0.65-0.31c-0.14-0.07-0.3-0.15-0.64-0.28l-12.81-4.1c-1.41-0.6-2.87-1.07-4.35-1.4
		c-1.7-0.38-3.44-0.57-5.17-0.57c-1.34,0-2.68,0.12-3.98,0.35c-1.52,0.27-3.01,0.7-4.44,1.28c-1.1,0.45-2.23,0.86-3.35,1.22
		c-2.26,0.72-4.58,1.26-6.92,1.62c-2.23,0.35-4.51,0.52-6.78,0.52c-7.07,0-14.13-1.68-20.44-4.87
		c-8.06-3.99-14.95-10.61-19.42-18.65c-3.92-6.67-6.1-15.23-5.98-23.47c0.08-8.33,2.56-15.29,4.62-19.66c1.51-3.21,3.01-5.59,4-7.16
		c0.61-0.97,0.97-1.55,1.14-1.98c0.25-0.58,0.23-1.1-0.06-1.53l-0.43-0.61h-0.72c-0.58,0-1.04,0.33-1.72,0.97
		c-0.85,0.79-2.24,2.24-3.99,4.7c-2.93,4.15-5.16,8.9-6.62,14.1c-1.19,4.13-2.76,12.01-1.25,21.61c-0.74,0.32-1.51,0.66-2.32,1.04
		c-4.06,1.96-10.04,5.09-15.13,9.65c-0.4,0.41-0.81,0.8-1.23,1.2c-0.85,0.83-1.73,1.68-2.53,2.68l-1.65,2.12l-0.87,1.13l-1.18,2
		c-0.78,1.33-1.59,2.71-2.13,4.18l-1.07,2.55c-0.23,0.59-0.41,1.2-0.58,1.81c-0.08,0.28-0.17,0.57-0.26,0.87
		c-2.2,7.4-2.77,15.04-3.04,21.55c-0.14,7.27-0.04,14.4,0.31,21.2c0.24,5.99,0.65,12.35,1.33,20.61c0.21,2.6,0.44,5.3,0.68,8.06
		c0.81,9.44,1.66,19.19,1.65,29.02c0.02,13.29-2.32,25.49-6.62,34.39c-2.83,6.15-6.68,11.93-11.28,17.04
		c-25.26-18.37-53.53-52.35-74.27-89.32c2.28-1.86,4.59-3.7,6.9-5.56c24.81-19.88,50.46-40.44,50.46-67.64
		c0-27.13-21.94-39.49-42.33-39.49c-19.65,0-33.43,6.3-40.96,18.73c-12.08,19.95-6.97,54.6,14.02,95.16
		c-24.85,19.13-43.81,36-44.44,62.18c-0.22,11.33,4.38,22.13,13.3,31.24c14.37,14.65,38.92,23.75,64.07,23.75
		c8.63,0,16.99-1.11,24.95-3.28c0.59-0.14,1.2-0.32,1.8-0.49c0.18-0.05,0.35-0.1,0.52-0.15s0.32-0.08,0.49-0.14
		c1.17-0.34,2.37-0.75,3.6-1.19l0.39-0.14v-0.01c3.18-1.19,6.5-2.7,9.93-4.52c3.51-1.88,7.18-4.39,10.54-7.17
		c9.7,6.52,19.4,9.83,28.85,9.83c8.27,0,15.32-2.98,20.39-8.62c7.63-8.47,10.64-22.67,8.7-41.06c-0.03-2.06-1.53-3.33-2.91-3.33
		c-0.68,0-1.31,0.28-1.78,0.78c-0.44,0.49-0.94,1.41-0.8,3.06c1.35,15.7-1.13,27.48-7.17,34.06c-3.74,4.07-8.74,6.14-14.86,6.14
		c-6.17,0-12.75-1.96-19.56-5.83c-1.15-0.66-2.3-1.4-3.45-2.21c3.26-3.7,6.26-7.88,8.53-11.95c4.52-7.99,7.67-17.52,9.08-27.56
		c1.15-8.5,1.37-17.72,0.69-29.01c-0.34-5.99-0.83-11.99-1.3-17.78c-0.28-3.45-0.56-6.87-0.8-10.26
		c-0.68-8.87-1.07-17.82-1.18-26.61c-0.04-9.9-0.09-22.23,3.16-32.67c1.61-4.97,4.12-9.3,7.48-12.85c3.09-3.3,6.93-6.27,11.79-9.12
		c1.11-0.74,2.26-1.46,3.39-2.15c2.77,9.85,8.77,19.11,16.65,25.61c8.98,7.56,20.79,11.97,32.39,12.1h0.96
		c6.32,0,12.58-1.16,18.61-3.45l0.48-0.19c0.54-0.2,0.96-0.37,1.49-0.52c0.51-0.15,1.08-0.29,1.82-0.42c0.82-0.13,1.68-0.2,2.53-0.2
		c0.43,0,0.87,0.02,1.3,0.05c1.24,0.1,2.52,0.36,3.85,0.78c0.18,0.05,0.35,0.12,0.52,0.18l0.33,0.12l0.9,0.37
		c0.11,0.05,0.23,0.09,0.4,0.15l11.36,3.7c2.16,0.6,4.42,2.06,6.33,4.1c1.78,1.9,3.06,4.24,3.73,6.75c0.09,0.38,0.19,0.83,0.29,1.32
		c0.23,1.08,0.51,2.43,0.95,3.62c0.63,1.81,1.48,3.54,2.53,5.14C1184.05,1031.59,1186.95,1034.26,1190.35,1036.1z M935.74,964.28
		c5.81-10.14,16.7-15.68,32.36-16.46c19.7,0.01,31.46,12.01,31.46,32.11c0,28.44-24.35,49.99-49.67,69.59
		C930.95,1012.66,925.79,981.65,935.74,964.28z M1001.22,1162.79c-9.17,3.37-18.82,5.1-28.73,5.1c-30.41,0-62.05-17.23-63.68-50.15
		c-0.89-24.54,16.62-39.77,35.54-55.65c20.73,36.52,49.21,70.41,75.22,89.58C1014.01,1156.2,1007.73,1160,1001.22,1162.79z"/>
	<linearGradient id="SVGID_7_" gradientUnits="userSpaceOnUse" x1="699.0963" y1="429.3199" x2="699.0963" y2="1585.7137">
		<stop  offset="0" style="stop-color:#B6A268"/>
		<stop  offset="0.4659" style="stop-color:#B6A268"/>
		<stop  offset="0.8227" style="stop-color:#B6A268"/>
	</linearGradient>
	<path class="st6" d="M675.91,1251.57c-0.89,0.34-1.85,0.56-2.86,0.65c-0.1,0.01-0.2,0.01-0.3,0.01c-0.69,0-1.34-0.23-1.99-0.71
		l-1.79,1.92l4.01,4.63l2.19-1.45c-0.24-0.48-0.13-0.58,0.04-0.73c0.58-0.5,1.3-0.92,2.16-1.24l14.96-5.69l14.19,16.4l-7.75,13.93
		c-0.48,0.79-1.02,1.46-1.59,1.98c-0.13,0.12-0.19,0.12-0.22,0.12c-0.06,0-0.24-0.02-0.57-0.23l-1.72,1.98l4.9,5.65l2.16-1.5
		c-0.44-0.8-0.56-1.57-0.37-2.36c0.24-0.99,0.59-1.91,1.05-2.74l26.81-48.23l-1.73-2L675.91,1251.57z M708.15,1262.35l-12.61-14.58
		l26.31-10.02L708.15,1262.35z"/>
	<linearGradient id="SVGID_8_" gradientUnits="userSpaceOnUse" x1="766.009" y1="429.3203" x2="766.009" y2="1585.7146">
		<stop  offset="0" style="stop-color:#B6A268"/>
		<stop  offset="0.4659" style="stop-color:#B6A268"/>
		<stop  offset="0.8227" style="stop-color:#B6A268"/>
	</linearGradient>
	<path class="st7" d="M778.01,1284.2c0.59,0.67,0.56,1.16,0.47,1.51c-0.21,0.8-0.57,1.55-1.05,2.24l-26.69,37.81
		c-0.49,0.69-1.08,1.28-1.76,1.74c-0.24,0.17-0.49,0.25-0.76,0.25c-0.24,0-0.52-0.06-0.81-0.18l-1.26,2.31l28.6,20.19l3.83-2.51
		l-1.09-2.38c-0.58,0.17-1.14,0.25-1.68,0.25c-0.46,0-0.91-0.06-1.35-0.18c-1.04-0.28-2.01-0.74-2.87-1.35l-18.6-13.13l28.31-40.1
		c0.49-0.69,1.08-1.28,1.76-1.74c0.24-0.17,0.48-0.24,0.76-0.24c0.24,0,0.52,0.06,0.82,0.18l1.26-2.31l-6.11-4.31L778.01,1284.2z"/>
	<linearGradient id="SVGID_9_" gradientUnits="userSpaceOnUse" x1="853.8052" y1="429.3193" x2="853.8052" y2="1585.709">
		<stop  offset="0" style="stop-color:#B6A268"/>
		<stop  offset="0.4659" style="stop-color:#B6A268"/>
		<stop  offset="0.8227" style="stop-color:#B6A268"/>
	</linearGradient>
	<path class="st8" d="M873.3,1357.35c-1.75-2.19-4.1-4.07-7.02-5.62c0.22-0.09,0.44-0.19,0.65-0.29c1.54-0.77,2.84-1.82,3.85-3.1
		s1.72-2.76,2.1-4.41s0.38-3.32-0.02-4.97c-0.4-1.64-1.22-3.18-2.44-4.58c-1.22-1.41-2.94-2.54-5.1-3.38l-14.54-5.64l-1.23,2.33
		c0.74,0.51,0.83,0.99,0.82,1.35c-0.01,0.82-0.17,1.64-0.47,2.43l-16.71,43.08c-0.3,0.78-0.73,1.5-1.28,2.11
		c-0.29,0.33-0.63,0.48-1.12,0.48c-0.13,0-0.26-0.01-0.39-0.03l-0.67,2.54l18.74,7.35c3.42,1.33,6.67,2,9.66,2
		c1.02,0,2.02-0.08,2.99-0.23c3.79-0.61,7.04-1.99,9.66-4.11c2.61-2.12,4.56-4.8,5.79-7.97s1.59-6.46,1.09-9.79
		C877.16,1363.57,875.69,1360.36,873.3,1357.35z M855.31,1330.56l8.7,3.37c1.57,0.61,2.76,1.46,3.52,2.54
		c0.79,1.1,1.22,2.26,1.33,3.53c0.11,1.3-0.06,2.6-0.52,3.85c-0.46,1.24-1.16,2.32-2.09,3.2s-2.02,1.48-3.36,1.82
		c-0.47,0.12-0.97,0.18-1.47,0.18c-0.88,0-1.84-0.18-2.81-0.53l-8.92-3.46L855.31,1330.56z M872.05,1374.95
		c-1,2.66-2.57,4.92-4.65,6.73c-2.09,1.8-4.67,3.01-7.69,3.61c-0.87,0.17-1.78,0.25-2.72,0.25c-2.26,0-4.74-0.51-7.36-1.53
		l-13.05-5.13l11.95-30.83l13.07,5.07c3.65,1.41,6.42,3.38,8.24,5.83c1.83,2.47,2.92,5.11,3.24,7.84
		C873.4,1369.55,873.06,1372.29,872.05,1374.95z"/>
	<linearGradient id="SVGID_10_" gradientUnits="userSpaceOnUse" x1="954.6287" y1="429.3225" x2="954.6287" y2="1585.7135">
		<stop  offset="0" style="stop-color:#B6A268"/>
		<stop  offset="0.4659" style="stop-color:#B6A268"/>
		<stop  offset="0.8227" style="stop-color:#B6A268"/>
	</linearGradient>
	<path class="st9" d="M969.78,1358.61c-3.09-2.3-7.13-3.74-12.04-4.29l-19.99-2.24l-0.6,2.56c0.85,0.3,1.06,0.75,1.14,1.1
		c0.2,0.8,0.26,1.63,0.16,2.47l-5.15,45.99c-0.09,0.84-0.33,1.64-0.7,2.38c-0.17,0.32-0.47,0.7-1.35,0.81l0.01,2.63l7.43,0.84
		l0.59-2.57c-0.84-0.3-1.05-0.74-1.13-1.09c-0.2-0.8-0.26-1.63-0.16-2.48l1.42-12.67l5,0.56c1.45,0.17,2.73,0.7,3.91,1.64
		c1.29,1.02,2.54,2.27,3.72,3.72c1.22,1.49,2.43,3.14,3.61,4.88c1.25,1.83,2.61,3.57,4.04,5.15c1.47,1.62,3.13,3.04,4.93,4.22
		c1.88,1.23,4.05,2,6.47,2.27l1.65,0.18l0.22,0.01c0.85,0,1.5-0.58,1.6-1.42c0.1-0.9-0.53-1.67-1.46-1.77l-0.99-0.11
		c-1.36-0.11-2.54-0.53-3.61-1.29c-1.17-0.82-2.3-1.85-3.36-3.07c-1.09-1.25-2.18-2.65-3.23-4.17c-1.08-1.57-2.24-3.15-3.45-4.69
		c-1.22-1.56-2.55-3.02-3.94-4.33c-0.04-0.04-0.08-0.08-0.12-0.11c0.91,0.07,1.79,0.11,2.65,0.11c3.36,0,6.38-0.58,8.98-1.74
		c3.51-1.55,6.3-3.72,8.28-6.44c1.99-2.71,3.19-5.8,3.57-9.18s-0.11-6.66-1.45-9.75C975.09,1363.63,972.86,1360.9,969.78,1358.61z
		 M973.07,1375.94c-0.29,2.82-1.23,5.41-2.79,7.69c-1.55,2.28-3.74,4.11-6.5,5.45c-2.07,1.01-4.5,1.52-7.24,1.52
		c-0.9,0-1.86-0.06-2.84-0.17l-13.94-1.56l3.69-32.93l13.94,1.56c3.89,0.44,7.07,1.63,9.45,3.54c2.4,1.92,4.13,4.19,5.14,6.75
		C972.99,1370.37,973.36,1373.11,973.07,1375.94z"/>
	<linearGradient id="SVGID_11_" gradientUnits="userSpaceOnUse" x1="1035.8259" y1="429.3177" x2="1035.8259" y2="1585.7123">
		<stop  offset="0" style="stop-color:#B6A268"/>
		<stop  offset="0.4659" style="stop-color:#B6A268"/>
		<stop  offset="0.8227" style="stop-color:#B6A268"/>
	</linearGradient>
	<path class="st10" d="M1041.06,1409.16c-0.36-0.74-0.58-1.55-0.67-2.39l-4.44-46.06c-0.08-0.84-0.01-1.68,0.2-2.47
		c0.09-0.35,0.31-0.79,1.15-1.08l-0.56-2.57l-7.44,0.72l-0.06,2.63c0.89,0.12,1.18,0.51,1.34,0.84c0.36,0.75,0.59,1.55,0.67,2.39
		l4.44,46.06c0.08,0.84,0.01,1.67-0.2,2.47c-0.09,0.35-0.31,0.79-1.15,1.08l0.55,2.57l7.44-0.72l0.05-2.63
		C1041.51,1409.87,1041.22,1409.48,1041.06,1409.16z"/>
	<linearGradient id="SVGID_12_" gradientUnits="userSpaceOnUse" x1="1123.6909" y1="429.3182" x2="1123.6909" y2="1585.7125">
		<stop  offset="0" style="stop-color:#B6A268"/>
		<stop  offset="0.4659" style="stop-color:#B6A268"/>
		<stop  offset="0.8227" style="stop-color:#B6A268"/>
	</linearGradient>
	<path class="st11" d="M1147.91,1362.91c0.01-0.36,0.12-0.84,0.88-1.31l-1.12-2.38l-7.09,2.37l0.54,2.58
		c0.09-0.01,0.18-0.01,0.27-0.01c0.71,0,1.03,0.28,1.22,0.53c0.52,0.65,0.92,1.38,1.19,2.18l3.22,9.62
		c-1.33,2.97-3.33,5.75-5.95,8.27c-2.74,2.64-6.04,4.61-9.8,5.87c-2.89,0.97-5.69,1.46-8.3,1.46c-0.92,0-1.84-0.06-2.73-0.18
		c-3.43-0.46-6.54-1.55-9.26-3.24c-2.74-1.7-5.13-3.93-7.12-6.63c-2.01-2.72-3.56-5.71-4.62-8.88c-1.06-3.17-1.62-6.49-1.65-9.88
		c-0.04-3.35,0.53-6.57,1.7-9.58c1.15-2.99,2.99-5.73,5.44-8.17c2.45-2.42,5.67-4.31,9.58-5.62c1.94-0.65,3.98-1.05,6.04-1.19
		c0.6-0.04,1.19-0.06,1.77-0.06c1.42,0,2.79,0.12,4.08,0.36c1.8,0.33,3.4,0.86,4.77,1.59c1.28,0.67,2.22,1.49,2.82,2.44l2.69,4.31
		l-0.44-9.1l-0.73-0.34c-3.37-1.55-6.98-2.46-10.72-2.72c-0.64-0.04-1.28-0.07-1.92-0.07c-3.13,0-6.3,0.53-9.43,1.58
		c-4.63,1.55-8.49,3.76-11.47,6.57c-2.97,2.8-5.21,5.98-6.65,9.45c-1.44,3.45-2.19,7.13-2.23,10.93c-0.04,3.78,0.54,7.49,1.73,11.03
		c1.18,3.54,2.95,6.86,5.26,9.85c2.32,3.01,5.13,5.5,8.36,7.39c3.24,1.9,6.94,3.1,11,3.54c0.91,0.1,1.85,0.15,2.8,0.15
		c3.25,0,6.72-0.61,10.31-1.81c4.08-1.37,7.64-3.45,10.58-6.18c2.36-2.2,4.36-4.71,5.97-7.5l3.26,5l2.37-1.14l-6.23-18.62
		C1148.01,1364.56,1147.88,1363.74,1147.91,1362.91z"/>
	<linearGradient id="SVGID_13_" gradientUnits="userSpaceOnUse" x1="1216.6855" y1="429.322" x2="1216.6855" y2="1585.7124">
		<stop  offset="0" style="stop-color:#B6A268"/>
		<stop  offset="0.4659" style="stop-color:#B6A268"/>
		<stop  offset="0.8227" style="stop-color:#B6A268"/>
	</linearGradient>
	<path class="st12" d="M1249.52,1327.33c-0.28,0-0.53-0.08-0.78-0.26c-0.67-0.47-1.26-1.07-1.74-1.76l-26.21-38.14
		c-0.48-0.7-0.82-1.45-1.03-2.26c-0.09-0.35-0.11-0.84,0.49-1.5l-1.73-1.98l-6.16,4.23l1.23,2.33c0.29-0.11,0.56-0.17,0.8-0.17
		c0.28,0,0.53,0.08,0.78,0.25c0.68,0.48,1.26,1.07,1.74,1.77l11.23,16.34l-26.65,18.32l-11.23-16.34c-0.48-0.7-0.82-1.46-1.03-2.26
		c-0.09-0.35-0.11-0.84,0.49-1.5l-1.73-1.98l-6.16,4.23l1.23,2.33c0.29-0.11,0.56-0.17,0.8-0.17c0.28,0,0.53,0.08,0.78,0.25
		c0.68,0.48,1.26,1.07,1.74,1.77l26.22,38.14c0.48,0.69,0.82,1.45,1.02,2.26c0.09,0.35,0.11,0.84-0.49,1.5l1.73,1.98l6.16-4.23
		l-1.23-2.33c-0.29,0.11-0.56,0.17-0.8,0.17c-0.28,0-0.53-0.08-0.78-0.26c-0.67-0.47-1.26-1.07-1.74-1.76l-13.17-19.16l26.65-18.32
		l13.17,19.15c0.48,0.7,0.82,1.46,1.02,2.26c0.09,0.35,0.11,0.84-0.49,1.5l1.73,1.98l6.16-4.23l-1.23-2.33
		C1250.03,1327.28,1249.76,1327.33,1249.52,1327.33z"/>
	<linearGradient id="SVGID_14_" gradientUnits="userSpaceOnUse" x1="1284.8512" y1="429.3216" x2="1284.8512" y2="1585.7148">
		<stop  offset="0" style="stop-color:#B6A268"/>
		<stop  offset="0.4659" style="stop-color:#B6A268"/>
		<stop  offset="0.8227" style="stop-color:#B6A268"/>
	</linearGradient>
	<path class="st13" d="M1313.22,1265.39c-0.16,0-0.31-0.03-0.48-0.09c-0.77-0.28-1.49-0.71-2.14-1.26l-37.29-31.92l10.05-11.74
		c0.67-0.79,1.38-1.37,2.09-1.74c0.44-0.22,0.98-0.34,1.6-0.34c0.26,0,0.53,0.02,0.81,0.06l0.93-2.4l-3.67-2.57l-31.49,36.78
		l3.01,3.29l2.26-1.23c-0.26-1-0.27-1.85-0.05-2.52c0.25-0.76,0.72-1.54,1.39-2.33l10-11.68l37.29,31.92
		c0.64,0.55,1.17,1.2,1.57,1.92c0.18,0.32,0.32,0.78-0.08,1.58l2.18,1.47l4.86-5.68l-1.79-1.93
		C1313.9,1265.25,1313.55,1265.39,1313.22,1265.39z"/>
	<linearGradient id="SVGID_15_" gradientUnits="userSpaceOnUse" x1="992.5163" y1="429.3206" x2="992.5163" y2="1585.7133">
		<stop  offset="0" style="stop-color:#B6A268"/>
		<stop  offset="0.4659" style="stop-color:#B6A268"/>
		<stop  offset="0.8227" style="stop-color:#B6A268"/>
	</linearGradient>
	<path class="st14" d="M1340.64,651.87c-45.21-45.22-97.86-80.71-156.49-105.51c-60.7-25.67-125.17-38.69-191.64-38.69
		c-66.46,0-130.93,13.02-191.63,38.69c-58.63,24.8-111.28,60.29-156.49,105.51c-45.22,45.21-80.71,97.86-105.51,156.49
		c-25.67,60.7-38.69,125.17-38.69,191.64c0,66.46,13.02,130.93,38.69,191.63c24.8,58.63,60.29,111.28,105.51,156.49
		c45.21,45.22,97.86,80.71,156.49,105.51c60.7,25.67,125.17,38.69,191.63,38.69c66.47,0,130.94-13.02,191.64-38.69
		c58.63-24.8,111.28-60.29,156.49-105.51c45.21-45.21,80.71-97.86,105.51-156.49c25.67-60.7,38.69-125.17,38.69-191.63
		c0-66.47-13.02-130.94-38.69-191.64C1421.35,749.73,1385.85,697.08,1340.64,651.87z M992.51,1485.7
		c-267.81,0-485.7-217.89-485.7-485.7c0-267.82,217.89-485.71,485.7-485.71c267.82,0,485.71,217.89,485.71,485.71
		C1478.22,1267.81,1260.33,1485.7,992.51,1485.7z"/>
	<g>
		<g>
			<g>
				<linearGradient id="SVGID_16_" gradientUnits="userSpaceOnUse" x1="501.5485" y1="429.322" x2="501.5485" y2="1585.7166">
					<stop  offset="0" style="stop-color:#B6A268"/>
					<stop  offset="0.4659" style="stop-color:#B6A268"/>
					<stop  offset="0.8227" style="stop-color:#B6A268"/>
				</linearGradient>
				<path class="st15" d="M481.89,1296.87l29.56-17.92c1.27-0.77,2.46-1.91,1.95-3.54l11.86,19.56l-1.93,1.52
					c0.79-1.8,0.53-3.03-0.43-4.6l-8.01-13.21l-16.51,10.01l5.97,9.85c0.95,1.57,1.78,2.25,3.68,2.29l-3.76,2.28
					c0.85-1.69,0.68-2.77-0.27-4.35l-5.97-9.85l-17.98,10.9l9.33,15.39c0.95,1.57,2.37,2.87,4.38,3.11l-2.71,0.46l-13.21-21.79
					C479.06,1298.16,480.62,1297.64,481.89,1296.87z"/>
				<linearGradient id="SVGID_17_" gradientUnits="userSpaceOnUse" x1="501.5485" y1="429.3189" x2="501.5485" y2="1585.71">
					<stop  offset="0" style="stop-color:#B6A268"/>
					<stop  offset="0.4659" style="stop-color:#B6A268"/>
					<stop  offset="0.8227" style="stop-color:#B6A268"/>
				</linearGradient>
				<path class="st16" d="M491.05,1319.35c-0.21,0-0.4-0.11-0.51-0.29l-13.21-21.79c-0.16-0.26-0.1-0.59,0.14-0.78
					c0.24-0.19,0.58-0.17,0.79,0.04c0.49,0.49,1.37,1,3.31-0.18l29.56-17.92c1.94-1.18,1.89-2.19,1.69-2.85
					c-0.09-0.29,0.05-0.6,0.33-0.72c0.28-0.12,0.6-0.02,0.76,0.24l11.85,19.56c0.16,0.26,0.1,0.6-0.14,0.78l-1.93,1.52
					c-0.22,0.17-0.52,0.17-0.74,0c-0.22-0.17-0.29-0.46-0.18-0.72c0.65-1.48,0.55-2.5-0.39-4.05l-7.69-12.69l-15.48,9.39l5.66,9.34
					c0.93,1.54,1.62,1.97,3.17,2c0.27,0,0.5,0.19,0.57,0.44c0.07,0.26-0.04,0.53-0.27,0.67l-3.76,2.28
					c-0.23,0.14-0.52,0.11-0.72-0.07c-0.2-0.18-0.25-0.47-0.13-0.71c0.71-1.43,0.66-2.27-0.25-3.77l-5.66-9.34l-16.96,10.28
					l9.02,14.88c1.02,1.69,2.35,2.64,3.94,2.82c0.3,0.03,0.52,0.28,0.53,0.58c0.01,0.3-0.2,0.56-0.5,0.61l-2.71,0.46
					C491.12,1319.35,491.09,1319.35,491.05,1319.35z M491.35,1318.08l0.01,0.01l0.01,0
					C491.36,1318.08,491.35,1318.08,491.35,1318.08z M505.4,1300.68c0.04,0.34,0.03,0.68-0.02,1.05l0.95-0.58
					C505.98,1301.03,505.67,1300.87,505.4,1300.68z M479.34,1298.27l0.55,0.91l17.82-10.81c0.06-0.04,0.13-0.06,0.2-0.08
					c0.04-0.06,0.1-0.1,0.16-0.14l16.35-9.91l-0.55-0.91c-0.35,0.77-1.05,1.48-2.11,2.12l-29.56,17.92
					C481.14,1298.02,480.18,1298.31,479.34,1298.27z M524.38,1294.68c0,0.07-0.01,0.14-0.01,0.21l0.1-0.08L524.38,1294.68z"/>
			</g>
			<g>
				<linearGradient id="SVGID_18_" gradientUnits="userSpaceOnUse" x1="549.3974" y1="429.3196" x2="549.3974" y2="1585.7122">
					<stop  offset="0" style="stop-color:#B6A268"/>
					<stop  offset="0.4659" style="stop-color:#B6A268"/>
					<stop  offset="0.8227" style="stop-color:#B6A268"/>
				</linearGradient>
				<path class="st17" d="M566.02,1349.97c15.31,18.63-6.76,41.37-24.63,33.84c0.18,1.62,0.68,2.98,1.58,4.08l0.49,0.6
					c0.15,0.18-0.17,0.45-0.32,0.26l-0.79-0.96c-1.17-1.42-1.78-2.92-2.17-4.52c-2.61-1.31-5.13-3.25-7.39-6
					C514.84,1355.42,548.07,1328.12,566.02,1349.97z M533.21,1376.92c2.11,2.57,4.39,4.31,6.81,5.48
					c-0.98-7.19,3.3-15.55-0.62-20.32l-0.45-0.55l0.32-0.26l0.79,0.96c4.94,6.01,1.08,14.41,1.26,20.72
					c16.97,6.43,38.36-15.53,24.3-32.65C549.06,1330.16,516.65,1356.78,533.21,1376.92z"/>
				<linearGradient id="SVGID_19_" gradientUnits="userSpaceOnUse" x1="549.3835" y1="429.3198" x2="549.3835" y2="1585.7146">
					<stop  offset="0" style="stop-color:#B6A268"/>
					<stop  offset="0.4659" style="stop-color:#B6A268"/>
					<stop  offset="0.8227" style="stop-color:#B6A268"/>
				</linearGradient>
				<path class="st18" d="M543.28,1389.41c-0.22,0-0.44-0.1-0.59-0.28l-0.79-0.96c-1.04-1.27-1.76-2.7-2.22-4.49
					c-2.75-1.42-5.22-3.45-7.34-6.03c-4.27-5.2-6.01-11.09-5.03-17.03c0.87-5.26,3.8-10.18,8.27-13.85
					c8.23-6.76,21.41-8.76,30.92,2.82l0,0c7.99,9.73,5.68,20.1,0.86,26.56c-5.25,7.04-15.47,12.09-25.2,8.6
					c0.24,1.09,0.67,2,1.29,2.76l0.49,0.6c0.28,0.34,0.22,0.83-0.13,1.11C543.64,1389.34,543.46,1389.41,543.28,1389.41z
					 M570.36,1366.35c-0.6,2.74-1.83,5.46-3.69,8.05c-3.91,5.44-10.67,9.86-17.91,10.28c7.08-0.03,13.75-4.08,17.62-9.25
					C568.53,1372.55,569.86,1369.48,570.36,1366.35z M540.8,1383.27c0.02,0.08,0.04,0.16,0.06,0.25c0.02-0.03,0.04-0.07,0.07-0.1
					C540.88,1383.38,540.84,1383.33,540.8,1383.27z M541.9,1382.53c9.14,3.23,18.86-1.95,23.8-8.83c5.36-7.46,5.15-16.07-0.56-23.02
					c-3.72-4.53-8.53-6.93-13.91-6.96c-0.03,0-0.06,0-0.08,0c-4.77,0-9.66,1.86-13.78,5.24c-7.58,6.23-11.97,17.51-3.71,27.58
					c0,0,0,0,0,0c1.7,2.06,3.55,3.65,5.63,4.81c-0.18-2.6,0.22-5.29,0.6-7.9c0.62-4.28,1.21-8.33-0.98-11l-0.45-0.55
					c-0.1-0.12-0.15-0.28-0.13-0.44c0.02-0.16,0.09-0.3,0.22-0.41l0.32-0.26c0.26-0.21,0.63-0.17,0.84,0.08l0.79,0.96
					c3.6,4.38,2.74,9.98,1.99,14.93C542.19,1378.82,541.9,1380.76,541.9,1382.53z M540.5,1382.75c0.09,0.06,0.16,0.13,0.21,0.22
					c0,0,0-0.01,0-0.01c-0.06-1.99,0.27-4.11,0.61-6.37c0.5-3.27,1-6.61,0.34-9.65c0.1,2.07-0.23,4.34-0.57,6.68
					c-0.42,2.9-0.86,5.91-0.48,8.69C540.63,1382.48,540.59,1382.63,540.5,1382.75z M550.1,1342.53c-4.84,0-9.71,1.82-13.77,5.16
					c-3.83,3.15-6.82,7.63-7.78,12.67c1.21-4.85,4.25-9.19,8.07-12.33c4.17-3.42,9.11-5.36,13.98-5.5
					C550.43,1342.53,550.26,1342.53,550.1,1342.53z"/>
			</g>
			<g>
				<linearGradient id="SVGID_20_" gradientUnits="userSpaceOnUse" x1="614.5003" y1="429.3195" x2="614.5003" y2="1585.7141">
					<stop  offset="0" style="stop-color:#B6A268"/>
					<stop  offset="0.4659" style="stop-color:#B6A268"/>
					<stop  offset="0.8227" style="stop-color:#B6A268"/>
				</linearGradient>
				<path class="st19" d="M612.18,1400.98l4.17,3.72c-1.52-0.8-2.85,0.16-3.84,1.27l-16.25,18.22c-6.05,6.78-3.73,14.98,1.59,19.72
					c5.23,4.67,13.38,5.97,19.31-0.68l16.45-18.44c0.99-1.11,1.83-2.5,0.87-3.92l3.37,3c-1.52-0.8-2.85,0.16-3.84,1.27l-16.45,18.44
					c-6.37,7.14-15,5.48-20.63,0.46c-5.67-5.06-8.31-13.62-2.58-20.05l17-19.06C612.35,1403.83,613.15,1402.39,612.18,1400.98z"/>
				<linearGradient id="SVGID_21_" gradientUnits="userSpaceOnUse" x1="614.4862" y1="429.3221" x2="614.4862" y2="1585.7145">
					<stop  offset="0" style="stop-color:#B6A268"/>
					<stop  offset="0.4659" style="stop-color:#B6A268"/>
					<stop  offset="0.8227" style="stop-color:#B6A268"/>
				</linearGradient>
				<path class="st20" d="M607.51,1448.98c-0.19,0-0.37,0-0.56-0.01c-3.64-0.15-7.34-1.74-10.41-4.48
					c-5.88-5.25-8.67-14.11-2.62-20.89l17-19.06c1.51-1.69,1.17-2.65,0.78-3.22c-0.17-0.25-0.13-0.59,0.1-0.79
					c0.23-0.2,0.57-0.2,0.79,0l4.17,3.72c0.23,0.2,0.27,0.54,0.09,0.79c-0.17,0.25-0.5,0.33-0.77,0.19
					c-0.61-0.32-1.6-0.55-3.11,1.14l-16.25,18.22c-5.97,6.7-3.39,14.48,1.54,18.88c4.8,4.28,12.63,5.91,18.46-0.63l16.45-18.44
					c1.17-1.31,1.43-2.3,0.82-3.18c-0.17-0.25-0.13-0.59,0.1-0.79c0.23-0.2,0.57-0.2,0.79,0l3.37,3c0.23,0.2,0.27,0.54,0.09,0.79
					c-0.17,0.25-0.5,0.33-0.77,0.19c-0.61-0.32-1.6-0.55-3.11,1.14l-16.45,18.44C615.08,1447.26,611.46,1448.98,607.51,1448.98z
					 M613.2,1402.69c-0.11,0.84-0.57,1.72-1.4,2.65l-17,19.06c-3.5,3.92-3.73,8.62-2.06,12.78c-1.34-4.27-0.72-9.14,3.07-13.39
					l16.25-18.22c0.82-0.92,1.65-1.49,2.47-1.69L613.2,1402.69z M635.48,1422.56c-0.04,0.27-0.11,0.53-0.21,0.78
					c0.25-0.13,0.5-0.23,0.76-0.29L635.48,1422.56z"/>
			</g>
			<g>
				<linearGradient id="SVGID_22_" gradientUnits="userSpaceOnUse" x1="672.7333" y1="429.3208" x2="672.7333" y2="1585.713">
					<stop  offset="0" style="stop-color:#B6A268"/>
					<stop  offset="0.4659" style="stop-color:#B6A268"/>
					<stop  offset="0.8227" style="stop-color:#B6A268"/>
				</linearGradient>
				<path class="st21" d="M655.28,1484.86l19.27-28.7c0.83-1.23,1.43-2.76,0.28-4.04l18.99,12.75l-1.11,2.19
					c-0.04-1.96-0.8-2.97-2.33-3.99l-12.82-8.61l-10.76,16.03l9.57,6.42c1.53,1.03,2.57,1.29,4.3,0.52l-2.45,3.65
					c0.06-1.89-0.55-2.8-2.08-3.83l-9.57-6.42l-11.72,17.46l14.94,10.03c1.53,1.03,3.36,1.61,5.29,0.97l-2.26,1.56l-21.16-14.2
					C653.26,1487.23,654.45,1486.1,655.28,1484.86z"/>
				<linearGradient id="SVGID_23_" gradientUnits="userSpaceOnUse" x1="672.7333" y1="429.3211" x2="672.7333" y2="1585.7122">
					<stop  offset="0" style="stop-color:#B6A268"/>
					<stop  offset="0.4659" style="stop-color:#B6A268"/>
					<stop  offset="0.8227" style="stop-color:#B6A268"/>
				</linearGradient>
				<path class="st22" d="M672.81,1501.45c-0.12,0-0.23-0.03-0.33-0.1l-21.16-14.2c-0.25-0.17-0.34-0.5-0.2-0.77
					c0.14-0.27,0.45-0.4,0.74-0.29c0.65,0.24,1.66,0.33,2.93-1.55l0,0l19.27-28.7c1.26-1.88,0.79-2.78,0.33-3.3
					c-0.2-0.23-0.21-0.57-0.01-0.79c0.2-0.23,0.54-0.27,0.79-0.11l18.99,12.75c0.25,0.17,0.34,0.5,0.2,0.77l-1.11,2.19
					c-0.12,0.24-0.4,0.37-0.67,0.31c-0.27-0.06-0.46-0.3-0.47-0.57c-0.04-1.61-0.56-2.5-2.06-3.51l-12.32-8.27l-10.09,15.03
					l9.07,6.09c1.5,1,2.3,1.11,3.72,0.47c0.24-0.11,0.53-0.04,0.7,0.16c0.17,0.2,0.19,0.5,0.04,0.72l-2.45,3.65
					c-0.15,0.22-0.43,0.32-0.68,0.24c-0.25-0.08-0.42-0.32-0.42-0.59c0.05-1.59-0.36-2.34-1.82-3.31l-9.07-6.09l-11.05,16.46
					l14.44,9.7c1.64,1.1,3.24,1.4,4.76,0.9c0.28-0.09,0.59,0.04,0.73,0.3c0.13,0.27,0.05,0.59-0.2,0.76l-2.26,1.56
					C673.05,1501.42,672.93,1501.45,672.81,1501.45z M672.79,1500.12L672.79,1500.12l0.02,0
					C672.8,1500.12,672.8,1500.12,672.79,1500.12z M653.56,1487.21l0.88,0.59l11.62-17.31c0.04-0.06,0.09-0.11,0.15-0.15
					c0.02-0.07,0.04-0.13,0.09-0.19l10.66-15.87l-0.88-0.59c0.01,0.84-0.33,1.78-1.02,2.81l-19.27,28.7
					C655.09,1486.23,654.35,1486.9,653.56,1487.21z M678.21,1478.42c0.18,0.29,0.32,0.6,0.42,0.96l0.62-0.92
					C678.89,1478.5,678.54,1478.48,678.21,1478.42z M692.91,1464.99c0.03,0.07,0.05,0.13,0.08,0.2l0.06-0.11L692.91,1464.99z"/>
			</g>
			<g>
				<linearGradient id="SVGID_24_" gradientUnits="userSpaceOnUse" x1="739.7743" y1="429.3201" x2="739.7743" y2="1585.7111">
					<stop  offset="0" style="stop-color:#B6A268"/>
					<stop  offset="0.4659" style="stop-color:#B6A268"/>
					<stop  offset="0.8227" style="stop-color:#B6A268"/>
				</linearGradient>
				<path class="st23" d="M732.63,1534.45c6.6,3.41,14.56,3.2,17.82-3.47c6.59-13.51-19.69-21.29-13.69-32.91
					c2.11-4.32,8.21-4.78,13.13-2.39c3.79,1.85,6.91,5.22,7.65,10.07l-1.63,1.85c0.93-5.56-2.12-9.62-6.17-11.6
					c-4.48-2.19-10.19-1.73-12.17,2.33c-4.71,9.66,21.87,19.12,14.33,33.09c-3.62,7.02-12.39,6.98-19.49,3.52
					c-8.97-4.51-11.45-11.07-9.99-15.97c1.41-4.8,6.24-8.19,11.79-5.88c2.91,1.22,5.49,4.2,6.09,8.92l-2.16,1.72
					c1.28-5.19-1.05-9.1-4.06-10.24C723.67,1509.2,715.81,1525.98,732.63,1534.45z"/>
				<linearGradient id="SVGID_25_" gradientUnits="userSpaceOnUse" x1="739.7822" y1="429.3206" x2="739.7822" y2="1585.7139">
					<stop  offset="0" style="stop-color:#B6A268"/>
					<stop  offset="0.4659" style="stop-color:#B6A268"/>
					<stop  offset="0.8227" style="stop-color:#B6A268"/>
				</linearGradient>
				<path class="st24" d="M741.61,1537.79c-3.18,0-6.53-0.89-9.47-2.32c-9.81-4.93-11.68-12.07-10.3-16.68
					c0.82-2.79,2.69-5.06,5.13-6.22c2.31-1.1,4.89-1.12,7.47-0.05c3.48,1.46,5.89,4.97,6.46,9.4c0.03,0.21-0.06,0.41-0.22,0.55
					l-2.16,1.72c-0.2,0.16-0.48,0.17-0.7,0.04c-0.22-0.14-0.32-0.4-0.26-0.65c1.2-4.89-0.95-8.5-3.69-9.54
					c-4.57-1.88-8.17,0.63-9.6,3.74c-2.11,4.62-0.3,11.63,8.64,16.13c0,0,0,0,0.01,0c4.05,2.1,8.3,2.67,11.64,1.56
					c2.4-0.8,4.21-2.4,5.36-4.76c3.22-6.59-1.98-11.88-7.01-16.98c-4.81-4.89-9.78-9.94-6.68-15.94c1.07-2.19,3.18-3.62,5.96-4.03
					c2.5-0.37,5.41,0.13,7.97,1.38c4.44,2.16,7.27,5.9,7.98,10.52c0.03,0.18-0.03,0.35-0.14,0.49l-1.63,1.85
					c-0.18,0.2-0.47,0.26-0.71,0.15c-0.24-0.12-0.38-0.38-0.33-0.64c0.78-4.7-1.4-8.8-5.84-10.96c-2.14-1.04-4.57-1.45-6.67-1.13
					c-1.56,0.24-3.63,0.99-4.7,3.18c-1.93,3.97,2.01,8,6.57,12.66c5.67,5.8,12.11,12.38,7.75,20.45
					C750.17,1536.06,746.05,1537.79,741.61,1537.79z M736.48,1501.77c0.13,3.85,3.63,7.41,7.28,11.12
					c5.07,5.15,10.82,10.99,7.23,18.35c-0.6,1.23-1.38,2.3-2.32,3.17c1.06-0.82,1.98-1.9,2.69-3.27c3.94-7.31-1.9-13.28-7.55-19.05
					C740.37,1508.57,737.07,1505.19,736.48,1501.77z M738.92,1518.95c0.19,1.01,0.23,2.12,0.09,3.3l0.64-0.51
					C739.5,1520.74,739.25,1519.81,738.92,1518.95z M756.59,1504.23c0.06,0.52,0.09,1.05,0.08,1.59l0.22-0.26
					C756.81,1505.11,756.71,1504.66,756.59,1504.23z"/>
			</g>
			<g>
				<linearGradient id="SVGID_26_" gradientUnits="userSpaceOnUse" x1="818.4283" y1="429.3194" x2="818.4283" y2="1585.7131">
					<stop  offset="0" style="stop-color:#B6A268"/>
					<stop  offset="0.4659" style="stop-color:#B6A268"/>
					<stop  offset="0.8227" style="stop-color:#B6A268"/>
				</linearGradient>
				<path class="st25" d="M802.62,1519.19l32.65,10.8l-0.54,2.39c-0.46-1.84-1.57-2.65-3.31-3.22l-11.9-3.93l-11.82,35.76
					c-0.47,1.41-0.63,3.04,0.82,3.96l-5.3-1.75c1.71,0.13,2.55-1.28,3.02-2.69l11.82-35.76l-11.84-3.92
					c-1.75-0.58-3.06-0.57-4.64,0.59L802.62,1519.19z"/>
				<linearGradient id="SVGID_27_" gradientUnits="userSpaceOnUse" x1="818.4283" y1="429.3181" x2="818.4283" y2="1585.7129">
					<stop  offset="0" style="stop-color:#B6A268"/>
					<stop  offset="0.4659" style="stop-color:#B6A268"/>
					<stop  offset="0.8227" style="stop-color:#B6A268"/>
				</linearGradient>
				<path class="st26" d="M808.52,1565.53c-0.06,0-0.13-0.01-0.19-0.03l-5.3-1.75c-0.29-0.1-0.46-0.39-0.4-0.69
					c0.06-0.3,0.33-0.51,0.63-0.48c0.69,0.05,1.69-0.13,2.4-2.28l11.63-35.19l-11.27-3.73c-1.74-0.58-2.81-0.44-4.09,0.51
					c-0.22,0.16-0.53,0.16-0.74-0.02c-0.21-0.17-0.28-0.47-0.16-0.72l1.05-2.22c0.13-0.27,0.44-0.41,0.73-0.31l32.65,10.8
					c0.29,0.1,0.46,0.4,0.4,0.7l-0.54,2.39c-0.06,0.27-0.3,0.46-0.58,0.47c-0.3-0.02-0.52-0.19-0.59-0.46
					c-0.36-1.45-1.15-2.21-2.92-2.8l-11.33-3.75l-11.63,35.19c-0.71,2.15-0.02,2.9,0.57,3.27c0.26,0.16,0.35,0.49,0.22,0.76
					C808.96,1565.4,808.75,1565.53,808.52,1565.53z M805.21,1563.21l1.69,0.56c-0.24-0.81-0.16-1.81,0.23-2.98l11.76-35.58
					l-0.33-0.11l-11.76,35.58C806.42,1561.85,805.89,1562.7,805.21,1563.21z M834.44,1530.34c0.04,0.05,0.08,0.1,0.11,0.15
					l0.02-0.11L834.44,1530.34z M802.94,1519.93l-0.05,0.12c0.07-0.02,0.14-0.04,0.22-0.06L802.94,1519.93z"/>
			</g>
			<g>
				<linearGradient id="SVGID_28_" gradientUnits="userSpaceOnUse" x1="890.9623" y1="429.321" x2="890.9623" y2="1585.7159">
					<stop  offset="0" style="stop-color:#B6A268"/>
					<stop  offset="0.4659" style="stop-color:#B6A268"/>
					<stop  offset="0.8227" style="stop-color:#B6A268"/>
				</linearGradient>
				<path class="st27" d="M880.49,1541.26l14.8,2.62c20.76,3.67,15.96,30.81-4.8,27.14l-3.33-0.59c7.48,3.74,9.17,15.68,16.17,16.67
					l0.7,0.12c0.29,0.05,0.22,0.46-0.07,0.41l-1.23-0.22c-9.83-1.74-11.3-16.23-18.85-17.57l-4.68-0.83l-1.83,10.35
					c-0.26,1.46-0.19,3.1,1.38,3.8l-5.5-0.97c1.71-0.12,2.34-1.64,2.6-3.1l6.02-34.04C882.13,1543.6,882.06,1541.96,880.49,1541.26z
					 M890.56,1570.6c18.66,3.3,23.2-23.04,4.66-26.32l-11.29-2l-4.66,26.32L890.56,1570.6z"/>
				<linearGradient id="SVGID_29_" gradientUnits="userSpaceOnUse" x1="890.9644" y1="429.3202" x2="890.9644" y2="1585.7142">
					<stop  offset="0" style="stop-color:#B6A268"/>
					<stop  offset="0.4659" style="stop-color:#B6A268"/>
					<stop  offset="0.8227" style="stop-color:#B6A268"/>
				</linearGradient>
				<path class="st28" d="M904.01,1588.24c-0.05,0-0.1,0-0.15-0.01l-1.23-0.22c-5.5-0.97-8.52-5.77-11.18-10
					c-2.26-3.6-4.4-6.99-7.67-7.57l-4.09-0.72l-1.73,9.76c-0.4,2.23,0.4,2.87,1.03,3.15c0.28,0.12,0.42,0.43,0.33,0.72
					c-0.09,0.29-0.38,0.47-0.68,0.42l-5.5-0.97c-0.3-0.05-0.51-0.32-0.5-0.62c0.02-0.3,0.26-0.55,0.56-0.57
					c0.69-0.05,1.65-0.37,2.05-2.6l6.02-34.04c0.39-2.23-0.4-2.87-1.03-3.15c-0.28-0.12-0.42-0.43-0.33-0.72
					c0.09-0.29,0.38-0.47,0.68-0.42l14.8,2.62c6.43,1.14,11.19,4.72,13.04,9.84c1.69,4.66,0.76,9.92-2.43,13.72
					c-3.5,4.17-9.2,5.91-15.63,4.77l-0.51-0.09c2.34,1.97,4.04,4.71,5.7,7.38c2.28,3.66,4.43,7.12,7.84,7.6l0.72,0.13
					c0.45,0.08,0.75,0.49,0.67,0.94C904.74,1587.97,904.4,1588.24,904.01,1588.24z M888.79,1572.18c1.32,1.46,2.48,3.3,3.67,5.19
					c1.64,2.61,3.32,5.27,5.53,7.13c-1.23-1.42-2.32-3.17-3.43-4.96C892.87,1576.83,891.15,1574.05,888.79,1572.18z M875.23,1581.94
					l1.76,0.31c-0.35-0.77-0.42-1.77-0.2-2.99l1.83-10.35c0.01-0.07,0.04-0.14,0.07-0.2c-0.01-0.07-0.01-0.14,0-0.21l4.62-26.14
					l-1.05-0.19c0.35,0.77,0.42,1.77,0.2,2.98l-6.02,34.04C876.23,1580.42,875.82,1581.34,875.23,1581.94z M879.97,1568.12
					l10.7,1.89c9.19,1.62,14.51-4.14,15.58-10.17c1.07-6.07-1.95-13.34-11.13-14.96l-10.7-1.89L879.97,1568.12z M906.32,1551.42
					c1.3,2.73,1.61,5.8,1.11,8.63c-0.49,2.76-1.79,5.47-3.86,7.55c0.55-0.46,1.06-0.97,1.53-1.54c2.92-3.47,3.77-8.27,2.22-12.53
					C907.04,1552.79,906.71,1552.08,906.32,1551.42z"/>
			</g>
			<g>
				<linearGradient id="SVGID_30_" gradientUnits="userSpaceOnUse" x1="961.1464" y1="429.3209" x2="961.1464" y2="1585.7111">
					<stop  offset="0" style="stop-color:#B6A268"/>
					<stop  offset="0.4659" style="stop-color:#B6A268"/>
					<stop  offset="0.8227" style="stop-color:#B6A268"/>
				</linearGradient>
				<path class="st29" d="M957.24,1592.95c1.68-0.33,2.12-1.91,2.21-3.39l1.87-34.52c0.08-1.48-0.19-3.1-1.83-3.61l5.58,0.3
					c-1.68,0.33-2.13,1.91-2.21,3.39l-1.87,34.52c-0.08,1.48,0.19,3.1,1.83,3.61L957.24,1592.95z"/>
				<linearGradient id="SVGID_31_" gradientUnits="userSpaceOnUse" x1="961.1464" y1="429.322" x2="961.1464" y2="1585.7119">
					<stop  offset="0" style="stop-color:#B6A268"/>
					<stop  offset="0.4659" style="stop-color:#B6A268"/>
					<stop  offset="0.8227" style="stop-color:#B6A268"/>
				</linearGradient>
				<path class="st30" d="M962.81,1593.85c-0.01,0-0.02,0-0.03,0l-5.58-0.3c-0.3-0.02-0.55-0.26-0.57-0.56
					c-0.02-0.3,0.19-0.57,0.48-0.63c0.68-0.13,1.6-0.57,1.72-2.83l1.87-34.52c0.12-2.27-0.74-2.8-1.4-3
					c-0.29-0.09-0.47-0.38-0.41-0.68c0.05-0.3,0.33-0.51,0.62-0.49l5.58,0.3c0.3,0.02,0.55,0.26,0.57,0.56
					c0.02,0.3-0.19,0.57-0.48,0.63c-0.68,0.13-1.6,0.57-1.72,2.83l-1.87,34.52c-0.12,2.27,0.74,2.8,1.41,3
					c0.29,0.09,0.47,0.38,0.41,0.68C963.35,1593.64,963.1,1593.85,962.81,1593.85z M959.17,1592.45l1.78,0.1
					c-0.44-0.72-0.63-1.7-0.56-2.94l1.87-34.52c0.07-1.24,0.36-2.19,0.88-2.86l-1.78-0.1c0.44,0.72,0.63,1.7,0.56,2.94l-1.87,34.52
					C959.97,1590.83,959.68,1591.78,959.17,1592.45z"/>
			</g>
			<g>
				<linearGradient id="SVGID_32_" gradientUnits="userSpaceOnUse" x1="1031.1073" y1="429.3204" x2="1031.1073" y2="1585.7137">
					<stop  offset="0" style="stop-color:#B6A268"/>
					<stop  offset="0.4659" style="stop-color:#B6A268"/>
					<stop  offset="0.8227" style="stop-color:#B6A268"/>
				</linearGradient>
				<path class="st31" d="M1013.68,1593.87c1.81-0.53,2.6-2.19,3.04-3.71l11.42-38.89l0.59-0.04l16.33,37.1
					c0.63,1.45,1.62,2.99,3.49,3.29l-5.57,0.36c1.51-0.57,1.11-2.1,0.54-3.55l-5.09-11.58l-17.55,1.13l-3.56,12.14
					c-0.44,1.52-0.57,3.13,0.94,3.45L1013.68,1593.87z M1021.02,1577.56l17.19-1.11l-10.12-23.04L1021.02,1577.56z"/>
				<linearGradient id="SVGID_33_" gradientUnits="userSpaceOnUse" x1="1031.1073" y1="429.3182" x2="1031.1073" y2="1585.7115">
					<stop  offset="0" style="stop-color:#B6A268"/>
					<stop  offset="0.4659" style="stop-color:#B6A268"/>
					<stop  offset="0.8227" style="stop-color:#B6A268"/>
				</linearGradient>
				<path class="st32" d="M1013.68,1594.47c-0.29,0-0.54-0.21-0.59-0.5c-0.05-0.3,0.13-0.59,0.42-0.68c1.25-0.37,2.08-1.42,2.63-3.3
					l11.42-38.9c0.07-0.24,0.29-0.41,0.54-0.43l0.59-0.04c0.27-0.02,0.49,0.13,0.59,0.36l16.33,37.1c0.78,1.8,1.75,2.73,3.03,2.94
					c0.3,0.05,0.52,0.32,0.51,0.62c-0.01,0.31-0.26,0.55-0.56,0.57l-5.57,0.36c-0.31,0.03-0.56-0.18-0.62-0.47
					c-0.06-0.29,0.1-0.58,0.37-0.69c0.4-0.15,0.52-0.35,0.58-0.48c0.24-0.55-0.08-1.51-0.38-2.29l-4.91-11.17l-16.71,1.08
					l-3.44,11.73c-0.4,1.4-0.28,2.03-0.11,2.32c0.07,0.12,0.21,0.29,0.59,0.37c0.29,0.06,0.5,0.33,0.47,0.63
					c-0.02,0.3-0.26,0.54-0.56,0.56l-4.57,0.29C1013.7,1594.47,1013.69,1594.47,1013.68,1594.47z M1016.45,1592.35
					c-0.16,0.26-0.34,0.52-0.56,0.77l0.78-0.05C1016.56,1592.86,1016.49,1592.62,1016.45,1592.35z M1038.81,1576.4
					c0.07,0.06,0.12,0.13,0.16,0.21l5.09,11.58c0.42,1.08,0.76,2.17,0.43,3.09l1.76-0.11c-0.68-0.61-1.26-1.47-1.75-2.59
					l-16.01-36.39l-0.2,0.67c0.15,0.05,0.28,0.17,0.35,0.32l10.12,23.04C1038.79,1576.27,1038.8,1576.33,1038.81,1576.4z
					 M1028.2,1555.16l-6.37,21.75l15.48-1L1028.2,1555.16z"/>
			</g>
			<g>
				<linearGradient id="SVGID_34_" gradientUnits="userSpaceOnUse" x1="1110.368" y1="429.3216" x2="1110.368" y2="1585.714">
					<stop  offset="0" style="stop-color:#B6A268"/>
					<stop  offset="0.4659" style="stop-color:#B6A268"/>
					<stop  offset="0.8227" style="stop-color:#B6A268"/>
				</linearGradient>
				<path class="st33" d="M1091.49,1543.8l5.46-1.15c-1.25,0.69-0.28,2.12,1.01,3.37l30.26,30.1l-7.36-34.93
					c-0.31-1.45-0.99-2.95-2.7-3.01l4.48-0.94c-1.54,0.75-1.56,2.39-1.25,3.85l7.85,37.26l-0.52,0.11l-32.26-32.11
					c-0.54-0.55-1.2-1.08-1.97-1.59l7.54,35.74c0.31,1.45,0.93,2.96,2.64,3.02l-4.42,0.93c1.54-0.75,1.56-2.39,1.25-3.85
					l-7.63-36.21C1093.12,1544.06,1092.4,1543.79,1091.49,1543.8z"/>
				<linearGradient id="SVGID_35_" gradientUnits="userSpaceOnUse" x1="1110.3679" y1="429.3224" x2="1110.3679" y2="1585.7122">
					<stop  offset="0" style="stop-color:#B6A268"/>
					<stop  offset="0.4659" style="stop-color:#B6A268"/>
					<stop  offset="0.8227" style="stop-color:#B6A268"/>
				</linearGradient>
				<path class="st34" d="M1100.24,1585.04c-0.25,0-0.48-0.16-0.57-0.41c-0.1-0.29,0.03-0.6,0.3-0.73c0.62-0.3,1.4-0.96,0.93-3.18
					l-7.57-35.91c-0.55-0.23-1.16-0.44-1.84-0.42c-0.3,0.02-0.57-0.23-0.6-0.53c-0.03-0.31,0.17-0.59,0.47-0.65l5.46-1.15
					c0.3-0.06,0.58,0.1,0.69,0.38c0.1,0.28-0.01,0.59-0.27,0.73c-0.24,0.14-0.26,0.25-0.27,0.3c-0.04,0.32,0.3,1.05,1.41,2.11
					l28.84,28.69l-6.95-32.96c-0.47-2.22-1.44-2.51-2.13-2.54c-0.3-0.01-0.55-0.25-0.58-0.55c-0.03-0.3,0.18-0.58,0.47-0.64
					l4.48-0.94c0.3-0.06,0.59,0.11,0.69,0.39c0.1,0.29-0.03,0.6-0.3,0.73c-0.62,0.3-1.4,0.96-0.93,3.18l7.85,37.26
					c0.03,0.16,0,0.32-0.08,0.45c-0.09,0.13-0.22,0.23-0.38,0.26l-0.52,0.11c-0.2,0.04-0.4-0.02-0.55-0.16l-32.26-32.11
					c-0.2-0.2-0.41-0.4-0.64-0.59l7.21,34.2c0.36,1.72,1,2.51,2.08,2.55c0.3,0.01,0.55,0.25,0.58,0.55c0.03,0.3-0.18,0.58-0.47,0.64
					l-4.42,0.93C1100.33,1585.04,1100.28,1585.04,1100.24,1585.04z M1102.2,1582.69c-0.04,0.28-0.12,0.54-0.22,0.78l0.72-0.15
					C1102.5,1583.12,1102.34,1582.91,1102.2,1582.69z M1094.48,1544.14c0.11,0,0.23,0.03,0.33,0.1c0.81,0.53,1.5,1.09,2.08,1.67
					l31.53,31.37l-0.12-0.57c-0.17,0.02-0.35-0.04-0.48-0.17l-30.26-30.1c-1.2-1.15-1.78-2.12-1.77-2.93l-1.64,0.35
					c0.13,0.06,0.22,0.17,0.28,0.3C1094.44,1544.15,1094.46,1544.14,1094.48,1544.14z M1120.15,1538.37
					c0.2,0.19,0.38,0.41,0.54,0.66c0.04-0.29,0.12-0.57,0.22-0.82L1120.15,1538.37z"/>
			</g>
			<g>
				<linearGradient id="SVGID_36_" gradientUnits="userSpaceOnUse" x1="1256.0001" y1="429.3235" x2="1256.0001" y2="1585.7126">
					<stop  offset="0" style="stop-color:#B6A268"/>
					<stop  offset="0.4659" style="stop-color:#B6A268"/>
					<stop  offset="0.8227" style="stop-color:#B6A268"/>
				</linearGradient>
				<path class="st35" d="M1246.5,1489.89c5.07-2.6,10.62-2.98,15.71-1.51l0.48,2.36c-2.66-3.11-10.13-3.35-15.94-0.37
					c-23.2,11.9-4.07,49.21,19.13,37.32c5.81-2.98,9.11-8.54,10.83-13.9c0.13-0.4,0.56-0.22,0.48,0.15
					c-1.21,5.96-5.2,11.21-11.07,14.22C1240.96,1541.06,1221.34,1502.79,1246.5,1489.89z"/>
				<linearGradient id="SVGID_37_" gradientUnits="userSpaceOnUse" x1="1255.9913" y1="429.3188" x2="1255.9913" y2="1585.7108">
					<stop  offset="0" style="stop-color:#B6A268"/>
					<stop  offset="0.4659" style="stop-color:#B6A268"/>
					<stop  offset="0.8227" style="stop-color:#B6A268"/>
				</linearGradient>
				<path class="st36" d="M1255.92,1531.38c-2.47,0-4.9-0.46-7.24-1.39c-4.96-1.96-9.14-5.88-11.77-11.02
					c-4.86-9.47-4.01-22.78,9.32-29.62l0,0c5-2.56,10.73-3.11,16.15-1.56c0.21,0.06,0.38,0.24,0.42,0.46l0.48,2.36
					c0.05,0.27-0.08,0.54-0.33,0.66c-0.25,0.12-0.54,0.06-0.72-0.15c-2.5-2.92-9.75-3.03-15.21-0.23
					c-6.23,3.19-9.84,8.62-10.17,15.28c-0.39,7.87,3.79,16.04,10.42,20.32c5.6,3.62,12.11,3.85,18.34,0.66
					c6.11-3.13,9.1-9.1,10.53-13.55c0.17-0.54,0.65-0.71,1.02-0.62c0.45,0.12,0.72,0.58,0.62,1.07
					c-1.27,6.24-5.42,11.58-11.38,14.63C1262.9,1530.48,1259.37,1531.38,1255.92,1531.38z M1236.01,1503.14
					c-1.33,5.17-0.39,10.7,1.96,15.29c2.35,4.58,6.29,8.57,11.26,10.51c-0.89-0.4-1.77-0.88-2.62-1.44
					c-6.97-4.5-11.38-13.1-10.96-21.38C1235.69,1505.1,1235.82,1504.1,1236.01,1503.14z M1260.63,1488.6
					c0.4,0.17,0.78,0.36,1.12,0.58l-0.07-0.32C1261.34,1488.76,1260.99,1488.68,1260.63,1488.6z"/>
			</g>
			<g>
				<linearGradient id="SVGID_38_" gradientUnits="userSpaceOnUse" x1="1323.6903" y1="429.3212" x2="1323.6903" y2="1585.7135">
					<stop  offset="0" style="stop-color:#B6A268"/>
					<stop  offset="0.4659" style="stop-color:#B6A268"/>
					<stop  offset="0.8227" style="stop-color:#B6A268"/>
				</linearGradient>
				<path class="st37" d="M1324.93,1488.19l-19.97-28.21c-0.86-1.21-2.08-2.31-3.67-1.69l18.66-13.21l1.65,1.82
					c-1.85-0.66-3.06-0.31-4.56,0.75l-12.6,8.92l11.15,15.76l9.4-6.66c1.5-1.06,2.12-1.94,2.02-3.83l2.54,3.59
					c-1.75-0.73-2.81-0.48-4.32,0.58l-9.4,6.66l12.15,17.16l14.69-10.4c1.5-1.06,2.7-2.56,2.79-4.59l0.65,2.67l-20.8,14.72
					C1326.42,1490.92,1325.78,1489.4,1324.93,1488.19z"/>
				<linearGradient id="SVGID_39_" gradientUnits="userSpaceOnUse" x1="1323.6904" y1="429.3207" x2="1323.6904" y2="1585.7101">
					<stop  offset="0" style="stop-color:#B6A268"/>
					<stop  offset="0.4659" style="stop-color:#B6A268"/>
					<stop  offset="0.8227" style="stop-color:#B6A268"/>
				</linearGradient>
				<path class="st38" d="M1325.3,1492.82c-0.16,0-0.33-0.07-0.44-0.2c-0.2-0.22-0.21-0.56-0.01-0.79c0.45-0.53,0.9-1.44-0.41-3.29
					l0,0l-19.97-28.21c-1.31-1.85-2.32-1.73-2.97-1.48c-0.28,0.11-0.6-0.01-0.75-0.27c-0.14-0.27-0.07-0.6,0.18-0.77l18.66-13.21
					c0.25-0.17,0.59-0.14,0.79,0.09l1.65,1.82c0.18,0.2,0.21,0.51,0.05,0.74c-0.15,0.23-0.44,0.32-0.7,0.23
					c-1.52-0.54-2.53-0.37-4.01,0.68l-12.12,8.58l10.46,14.78l8.92-6.31c1.47-1.04,1.85-1.75,1.77-3.31
					c-0.01-0.27,0.15-0.51,0.4-0.6c0.25-0.09,0.53,0,0.69,0.22l2.54,3.59c0.16,0.22,0.15,0.51-0.02,0.72
					c-0.17,0.21-0.45,0.28-0.7,0.18c-1.47-0.61-2.31-0.49-3.74,0.52l-8.92,6.31l11.46,16.18l14.2-10.05
					c1.61-1.14,2.46-2.53,2.54-4.13c0.01-0.3,0.24-0.54,0.54-0.57c0.33-0.03,0.57,0.17,0.64,0.46l0.65,2.67
					c0.06,0.24-0.04,0.49-0.24,0.63l-20.8,14.72C1325.54,1492.78,1325.42,1492.82,1325.3,1492.82z M1325.42,1487.84
					c0.72,1.01,1.08,1.94,1.09,2.79l0.87-0.61l-12.04-17.01c-0.04-0.06-0.07-0.12-0.09-0.19c-0.06-0.04-0.11-0.09-0.15-0.15
					l-11.05-15.6l-0.87,0.61c0.79,0.29,1.55,0.94,2.26,1.95L1325.42,1487.84z M1345.42,1477.23c0,0.01-0.01,0.01-0.01,0.02
					L1345.42,1477.23L1345.42,1477.23z M1327.46,1463.52c-0.09,0.35-0.23,0.67-0.41,0.96c0.33-0.06,0.68-0.08,1.05-0.05
					L1327.46,1463.52z M1319.86,1445.87l-0.13,0.09c0.07,0,0.14,0,0.21,0L1319.86,1445.87z"/>
			</g>
			<g>
				<linearGradient id="SVGID_40_" gradientUnits="userSpaceOnUse" x1="1384.0189" y1="429.3193" x2="1384.0189" y2="1585.7092">
					<stop  offset="0" style="stop-color:#B6A268"/>
					<stop  offset="0.4659" style="stop-color:#B6A268"/>
					<stop  offset="0.8227" style="stop-color:#B6A268"/>
				</linearGradient>
				<path class="st39" d="M1358.92,1413.7l4.07-3.82c-0.71,1.24,0.86,1.96,2.62,2.35l41.5,10l-24.44-26.03
					c-1.02-1.08-2.37-2.01-3.87-1.17l3.33-3.13c-0.93,1.44-0.09,2.85,0.93,3.94l26.07,27.76l-0.39,0.37l-44.25-10.68
					c-0.75-0.19-1.59-0.3-2.51-0.33l25.01,26.63c1.02,1.08,2.33,2.05,3.83,1.21l-3.29,3.09c0.93-1.44,0.09-2.85-0.93-3.94
					l-25.33-26.98C1360.45,1413.08,1359.69,1413.22,1358.92,1413.7z"/>
				<linearGradient id="SVGID_41_" gradientUnits="userSpaceOnUse" x1="1384.0188" y1="429.32" x2="1384.0188" y2="1585.7104">
					<stop  offset="0" style="stop-color:#B6A268"/>
					<stop  offset="0.4659" style="stop-color:#B6A268"/>
					<stop  offset="0.8227" style="stop-color:#B6A268"/>
				</linearGradient>
				<path class="st40" d="M1387.51,1444.49c-0.14,0-0.27-0.05-0.38-0.14c-0.23-0.19-0.29-0.53-0.12-0.79
					c0.38-0.58,0.69-1.55-0.86-3.2l-25.12-26.75c-0.59,0.09-1.2,0.23-1.79,0.6c-0.26,0.16-0.6,0.1-0.79-0.14
					c-0.19-0.24-0.16-0.59,0.06-0.8l4.07-3.82c0.22-0.2,0.55-0.22,0.78-0.03c0.23,0.18,0.3,0.51,0.15,0.77
					c-0.14,0.24-0.09,0.35-0.07,0.4c0.13,0.3,0.8,0.74,2.3,1.07l39.56,9.54l-23.06-24.56c-1.55-1.65-2.54-1.4-3.14-1.06
					c-0.26,0.15-0.6,0.08-0.78-0.17c-0.18-0.24-0.15-0.58,0.07-0.79l3.33-3.13c0.22-0.21,0.56-0.22,0.79-0.02
					c0.23,0.19,0.29,0.53,0.12,0.79c-0.38,0.58-0.69,1.55,0.86,3.2l26.07,27.76c0.11,0.12,0.17,0.27,0.16,0.43
					c0,0.16-0.07,0.31-0.19,0.42l-0.39,0.37c-0.15,0.14-0.35,0.19-0.55,0.15l-44.25-10.68c-0.27-0.07-0.56-0.13-0.85-0.17
					l23.93,25.48c1.21,1.28,2.16,1.62,3.1,1.1c0.26-0.15,0.6-0.08,0.78,0.17c0.18,0.24,0.15,0.58-0.07,0.79l-3.29,3.09
					C1387.81,1444.44,1387.66,1444.49,1387.51,1444.49z M1388.27,1441.38c0.11,0.26,0.18,0.52,0.22,0.78l0.54-0.51
					C1388.76,1441.59,1388.5,1441.49,1388.27,1441.38z M1361.97,1412.36c0.01,0,0.01,0,0.02,0c0.96,0.03,1.85,0.15,2.64,0.35
					l43.24,10.43l-0.4-0.43c-0.14,0.11-0.33,0.15-0.5,0.1l-41.5-10c-1.62-0.36-2.62-0.88-3.04-1.58l-1.22,1.15
					c0.15-0.01,0.28,0.03,0.39,0.11C1361.7,1412.4,1361.83,1412.36,1361.97,1412.36z M1380.59,1394.17c0.26,0.06,0.53,0.15,0.8,0.28
					c-0.12-0.27-0.19-0.55-0.23-0.81L1380.59,1394.17z"/>
			</g>
			<g>
				<linearGradient id="SVGID_42_" gradientUnits="userSpaceOnUse" x1="1436.1298" y1="429.321" x2="1436.1298" y2="1585.7128">
					<stop  offset="0" style="stop-color:#B6A268"/>
					<stop  offset="0.4659" style="stop-color:#B6A268"/>
					<stop  offset="0.8227" style="stop-color:#B6A268"/>
				</linearGradient>
				<path class="st41" d="M1413.66,1357.89l21.46-26.88l2.05,1.33c-1.88-0.21-3.02,0.55-4.17,1.99l-7.82,9.79l29.43,23.5
					c1.16,0.93,2.64,1.65,4,0.61l-3.48,4.36c0.71-1.56-0.32-2.84-1.48-3.77l-29.43-23.5l-7.78,9.75c-1.15,1.44-1.6,2.67-1.05,4.56
					L1413.66,1357.89z"/>
				<linearGradient id="SVGID_43_" gradientUnits="userSpaceOnUse" x1="1436.1298" y1="429.3213" x2="1436.1298" y2="1585.7144">
					<stop  offset="0" style="stop-color:#B6A268"/>
					<stop  offset="0.4659" style="stop-color:#B6A268"/>
					<stop  offset="0.8227" style="stop-color:#B6A268"/>
				</linearGradient>
				<path class="st42" d="M1455.12,1373.21c-0.11,0-0.22-0.03-0.31-0.09c-0.26-0.16-0.36-0.48-0.23-0.76
					c0.29-0.63,0.47-1.63-1.31-3.05l-28.96-23.12l-7.41,9.28c-1.14,1.43-1.39,2.48-0.95,4.01c0.08,0.26-0.04,0.55-0.27,0.69
					c-0.24,0.14-0.54,0.1-0.73-0.1l-1.72-1.75c-0.21-0.22-0.23-0.56-0.04-0.79l21.46-26.88c0.19-0.24,0.54-0.3,0.8-0.13l2.05,1.33
					c0.23,0.15,0.33,0.44,0.24,0.71c-0.09,0.26-0.33,0.43-0.63,0.39c-1.49-0.17-2.47,0.31-3.64,1.77l-7.45,9.33l28.96,23.12
					c1.77,1.41,2.71,1.02,3.26,0.6c0.24-0.18,0.58-0.16,0.79,0.06c0.21,0.22,0.23,0.56,0.04,0.79l-3.48,4.36
					C1455.47,1373.13,1455.29,1373.21,1455.12,1373.21z M1424.73,1344.99l29.28,23.38c0.97,0.77,1.58,1.57,1.82,2.37l1.11-1.39
					c-0.84-0.06-1.75-0.48-2.72-1.25l-29.29-23.38L1424.73,1344.99z M1414.46,1357.85l0.09,0.09c0-0.08,0.01-0.15,0.02-0.22
					L1414.46,1357.85z M1435.25,1331.82l-0.09,0.11c0.06-0.02,0.12-0.04,0.18-0.05L1435.25,1331.82z"/>
			</g>
			<g>
				<linearGradient id="SVGID_44_" gradientUnits="userSpaceOnUse" x1="1485.8036" y1="429.3208" x2="1485.8036" y2="1585.7135">
					<stop  offset="0" style="stop-color:#B6A268"/>
					<stop  offset="0.4659" style="stop-color:#B6A268"/>
					<stop  offset="0.8227" style="stop-color:#B6A268"/>
				</linearGradient>
				<path class="st43" d="M1495.18,1310.14l-29.71-17.67c-1.28-0.76-2.84-1.27-4.04-0.06l11.69-19.66l2.25,0.99
					c-1.96,0.15-2.92,0.96-3.86,2.54l-7.9,13.27l16.59,9.87l5.89-9.9c0.94-1.58,1.15-2.63,0.29-4.32l3.78,2.25
					c-1.9,0.05-2.77,0.7-3.71,2.29l-5.89,9.9l18.07,10.75l9.2-15.47c0.94-1.58,1.42-3.44,0.68-5.33l1.68,2.17l-13.03,21.9
					C1497.65,1312.03,1496.46,1310.9,1495.18,1310.14z"/>
				<linearGradient id="SVGID_45_" gradientUnits="userSpaceOnUse" x1="1485.8035" y1="429.3223" x2="1485.8035" y2="1585.7156">
					<stop  offset="0" style="stop-color:#B6A268"/>
					<stop  offset="0.4659" style="stop-color:#B6A268"/>
					<stop  offset="0.8227" style="stop-color:#B6A268"/>
				</linearGradient>
				<path class="st44" d="M1497.16,1314.27c-0.08,0-0.16-0.02-0.24-0.05c-0.28-0.12-0.42-0.43-0.33-0.72
					c0.2-0.66,0.24-1.68-1.71-2.84l-29.71-17.67c-1.95-1.16-2.82-0.64-3.31-0.15c-0.21,0.21-0.55,0.24-0.79,0.05
					c-0.24-0.19-0.3-0.52-0.15-0.78l11.69-19.66c0.16-0.26,0.48-0.36,0.76-0.24l2.25,0.99c0.25,0.11,0.4,0.38,0.35,0.65
					c-0.05,0.27-0.27,0.48-0.55,0.5c-1.61,0.12-2.46,0.69-3.39,2.25l-7.59,12.76l15.56,9.26l5.58-9.39
					c0.92-1.55,0.98-2.35,0.27-3.74c-0.12-0.24-0.07-0.53,0.12-0.71c0.2-0.18,0.49-0.21,0.72-0.08l3.78,2.25
					c0.23,0.14,0.34,0.41,0.27,0.67c-0.07,0.26-0.3,0.44-0.56,0.45c-1.59,0.04-2.31,0.49-3.21,1.99l-5.58,9.39l17.04,10.14
					l8.89-14.95c1.01-1.7,1.22-3.31,0.64-4.81c-0.11-0.28,0-0.59,0.26-0.74c0.26-0.15,0.59-0.08,0.77,0.16l1.68,2.17
					c0.15,0.19,0.17,0.46,0.04,0.67l-13.03,21.9C1497.56,1314.16,1497.37,1314.27,1497.16,1314.27z M1463.11,1291.08
					c0.79,0,1.68,0.29,2.66,0.87l29.71,17.67l0,0c1.06,0.63,1.78,1.34,2.13,2.1l0.54-0.92l-17.91-10.66
					c-0.06-0.04-0.12-0.08-0.16-0.14c-0.07-0.01-0.13-0.04-0.2-0.07l-16.43-9.77l-0.54,0.91
					C1462.98,1291.08,1463.04,1291.08,1463.11,1291.08z M1509.46,1291.8c0,0.01,0,0.01,0,0.02L1509.46,1291.8L1509.46,1291.8z
					 M1487.47,1286.56c0.06,0.36,0.06,0.7,0.02,1.04c0.28-0.19,0.59-0.35,0.94-0.47L1487.47,1286.56z M1473.36,1273.52l-0.08,0.14
					c0.06-0.03,0.13-0.06,0.2-0.09L1473.36,1273.52z"/>
			</g>
			<g>
				<linearGradient id="SVGID_46_" gradientUnits="userSpaceOnUse" x1="1521.2992" y1="429.3191" x2="1521.2992" y2="1585.7122">
					<stop  offset="0" style="stop-color:#B6A268"/>
					<stop  offset="0.4659" style="stop-color:#B6A268"/>
					<stop  offset="0.8227" style="stop-color:#B6A268"/>
				</linearGradient>
				<path class="st45" d="M1496.08,1227.95l5.82-13.85c8.17-19.44,33.58-8.76,25.41,10.68l-1.31,3.12
					c5.3-6.47,17.32-5.48,19.83-12.09l0.28-0.66c0.12-0.27,0.5-0.11,0.38,0.16l-0.48,1.15c-3.87,9.2-18.33,7.44-21.3,14.5
					l-1.84,4.38l9.69,4.07c1.37,0.58,2.99,0.87,4.01-0.5l-2.16,5.15c0.26-1.69-1.08-2.64-2.45-3.22l-31.87-13.39
					C1498.73,1226.87,1497.11,1226.57,1496.08,1227.95z M1526.93,1224.61c7.34-17.47-17.35-27.71-24.64-10.35l-4.44,10.57
					l24.64,10.35L1526.93,1224.61z"/>
				<linearGradient id="SVGID_47_" gradientUnits="userSpaceOnUse" x1="1521.2992" y1="429.3187" x2="1521.2992" y2="1585.7129">
					<stop  offset="0" style="stop-color:#B6A268"/>
					<stop  offset="0.4659" style="stop-color:#B6A268"/>
					<stop  offset="0.8227" style="stop-color:#B6A268"/>
				</linearGradient>
				<path class="st46" d="M1534.42,1244.65c-0.05,0-0.11-0.01-0.16-0.02c-0.29-0.08-0.48-0.37-0.43-0.67c0.11-0.68,0-1.7-2.09-2.58
					l-31.87-13.39c-2.09-0.88-2.89-0.24-3.3,0.31c-0.18,0.24-0.52,0.31-0.78,0.16c-0.26-0.15-0.37-0.47-0.25-0.75l5.82-13.85
					c2.53-6.02,7.08-9.87,12.48-10.55c4.91-0.62,9.84,1.44,12.84,5.4c3.29,4.33,3.73,10.27,1.2,16.3l-0.2,0.48
					c2.44-1.84,5.49-2.9,8.46-3.93c4.07-1.41,7.92-2.75,9.15-5.96l0.28-0.68c0.09-0.22,0.25-0.38,0.46-0.46
					c0.19-0.07,0.41-0.07,0.6,0.01c0.19,0.08,0.34,0.23,0.43,0.42c0.09,0.21,0.09,0.44,0,0.65l-0.48,1.15
					c-2.16,5.15-7.51,7.03-12.22,8.7c-4.01,1.42-7.79,2.75-9.08,5.81l-1.61,3.83l9.14,3.84c2.09,0.88,2.89,0.24,3.3-0.31
					c0.18-0.24,0.51-0.31,0.78-0.16c0.26,0.15,0.37,0.47,0.25,0.75l-2.16,5.15C1534.87,1244.51,1534.65,1244.65,1534.42,1244.65z
					 M1498.06,1226.36c0.67,0,1.43,0.18,2.27,0.53l31.87,13.39c1.14,0.48,1.94,1.08,2.4,1.79l0.69-1.64
					c-0.83,0.17-1.82,0.02-2.96-0.46l-9.69-4.07c-0.07-0.03-0.13-0.07-0.18-0.11c-0.07,0-0.14-0.02-0.21-0.05l-24.47-10.28
					l-0.41,0.98C1497.59,1226.38,1497.82,1226.36,1498.06,1226.36z M1498.63,1224.5l23.54,9.89l4.21-10.02l0,0
					c2.07-4.92,1.66-9.65-1.13-13.33c-2.77-3.65-7.51-5.63-12.07-5.06c-4.6,0.58-8.27,3.6-10.33,8.5L1498.63,1224.5z
					 M1542.12,1220.43c-1.66,0.89-3.6,1.56-5.6,2.25c-3.01,1.04-6.11,2.12-8.45,4.01c1.72-0.97,3.77-1.69,5.88-2.44
					C1536.85,1223.23,1539.82,1222.18,1542.12,1220.43z M1514.74,1204.69c4.42,0,8.78,2.1,11.46,5.63c0.27,0.36,0.52,0.72,0.75,1.1
					c-0.35-0.69-0.76-1.35-1.24-1.98c-2.74-3.61-7.24-5.5-11.74-4.93c-0.88,0.11-1.73,0.31-2.55,0.59c0.52-0.13,1.05-0.23,1.6-0.3
					C1513.59,1204.72,1514.17,1204.69,1514.74,1204.69z"/>
			</g>
		</g>
	</g>
</g>
</svg>
